<?xml version="1.0" encoding="UTF-8"?>
<svg id="Layer_2" data-name="Layer 2" xmlns="http://www.w3.org/2000/svg" viewBox="0 0 180 255.12" width="705"
height="1000">
  <defs>
    <style>
      .cls-1 {
        fill: #f6cdd7;
      }

      .cls-2 {
        fill: #fff;
      }

      .cls-3 {
        fill: #fce350;
      }

      .cls-4 {
        fill: #d7b6bf;
      }

      .cls-5 {
        fill: #afd1a3;
      }

      .cls-6 {
        fill: #a9d7e5;
      }

      .cls-7 {
        fill: #43327c;
      }
    </style>
  </defs>
  <g id="Layer_1-2" data-name="Layer 1">
    <g>
      <rect class="cls-2" width="180" height="255.12"/>
      <path class="cls-1" d="m170.83,229.92c-.08-.37-.15-.75-.23-1.13.06-7.06-.46-14.1-1.11-21.02.1-.62.17-1.25.26-1.88-.12-1.07-.25-2.14-.38-3.21.45-7.26.69-14.53.69-21.83,0-6.11.33-12.32-.31-18.4-.43-4.07-2.4-5.52-5.2-6.02-.37-.35-.72-.59-.78-.58-5.26-.63-11.35-.38-17.02-.03-.93-.39-5.18-.03-5.74.36-.36.02-.72.04-1.06.06-1.36.07-2.72.14-4.08.2-1.09-.2-2.31-.16-3.32.13-2.15.07-4.29.13-6.42.16-1.75-.94-3.99-1.35-6.42-1.1-.12.01-.23.03-.34.05-.22.01-.44.03-.67.07-.39.06-.74.15-1.06.27-.33-.05-.67-.07-1.02-.07-.79,0-1.52.14-2.12.37-.71-.74-1.75-1.41-3.28-1.86-.54-.16-1.14-.24-1.74-.25-.52,0-1.03.05-1.52.16-1.05.24-1.82.73-2.11,1.33,0,.02-.02.04-.03.06-.83.07-1.63.22-2.34.44-.33-.19-.71-.36-1.13-.52-1.01-.38-2.28-.47-3.42-.24-.64.13-1.19.35-1.6.63-.8-.05-1.61-.1-2.41-.16-1.03-.64-2.58-.94-4.11-.75-.52.06-.99.18-1.42.33-1.03-.09-2.05-.17-3.08-.27-.53-.6-1.57-1.03-2.79-1.14-.66-.06-1.32-.11-1.99-.17-1.05-.39-2.4-.5-3.64-.29-20.72-1.55-41.64-1.47-62.28.27-.91.08-2.6.22-4.01.95-1.72.9-1.96,2.15-2.08,2.75-1.16,6.13-.26,12.31.61,18.29.25,1.7.49,3.4.69,5.1,1.54,13.05.31,26.39-.88,39.29l-.16,1.73c-.48,5.2-1.02,11.09,2.08,16.62.2.36.59.67,1.07.91.55,1.29,1.83,2.44,3.93,2.83,3.08.56,5.03,1.94,8.36,1.92,3.66-.02,7.28-.43,10.93-.43.92,0,1.85,0,2.77,0l.32.16c2.05,1,4.39.92,6.18-.12.54,0,1.09,0,1.63.01,1.19.02,2.38-.11,3.56-.27h17.22c1.16,0,2.13-.27,2.94-.73,12.97.52,25.99.41,38.92-.34.51.85,1.33,1.41,2.49,1.41,4.25,0,8.76.54,12.99.02,1.4-.17,2.79-.45,4.18-.75.64.21,1.37.32,2.11.33.58,0,1.16-.05,1.7-.18,1.05-.24,1.82-.7,2.14-1.25.01,0,.03,0,.04,0,1.37-.16,2.75-.26,4.13-.34,1.63.66,3.77,1.13,6.58,1.33.9.06,1.81-.03,2.58-.27,1.24-.38,2.33-.77,3.3-1.19,2,.04,3.98.08,5.94.09,2.6.02,4.81,1.61,7.44,1.06,2.53-.53,4.36-2.68,5.26-4.99,1.03-2.62.82-5.23.22-7.89Zm-119.14-73.37c-1.08,1.38-1.47,2.93-1.61,4.09-.24.24-.48.49-.72.73-.25-1.62-.52-3.23-.8-4.84,1.04,0,2.09,0,3.13.01Zm-8.55,66.26c.29.03.59.04.88.05l-1.08,5.12c-.08.05-.16.1-.23.16-.1-.26-.2-.52-.29-.77.31-1.51.55-3.03.72-4.55Zm-4.98-27.44c0,.82-.02,1.64-.05,2.46-.09.06-.18.11-.26.17v-2.47c.1-.05.21-.1.31-.15Zm-2.11-38.62s-.02.05-.02.08l-.49,1.66c-.17-.57-.37-1.13-.6-1.69.37-.01.75-.03,1.12-.04Zm43.97,9.79c-.48-.54-1.39-.96-2.5-1.11-.05,0-.11,0-.16-.02.52-.62,1.06-1.23,1.62-1.83.11.07.22.14.32.22.33.53.67,1.05,1.02,1.58-.1.38-.2.76-.3,1.15Zm3.55,72.65c1.08-1.38,1.47-2.92,1.61-4.09.24-.24.48-.49.72-.73.25,1.62.52,3.23.8,4.84-1.04,0-2.09,0-3.13-.01Zm13.53-38.81c0-.82.02-1.64.05-2.46.09-.06.18-.11.26-.17v2.47c-.1.05-.21.1-.31.15Zm2.11,38.62s.02-.05.02-.08l.49-1.66c.17.57.37,1.13.6,1.69-.37.01-.75.03-1.12.04Zm26.57-32.77l-.12-.14c-.1-1.55-.18-3.1-.24-4.65.21-.13.39-.28.54-.44.17-.19.33-.39.49-.58.02.31.05.63.07.94,0,.03,0,.05,0,.08l.02.94c-.27,1.28-.53,2.57-.77,3.86Zm20.64-36.08c-.14.86-.32,1.73-.51,2.59-.33-1.45-.7-2.88-1.14-4.29.63-.07,1.24-.15,1.86-.24-.03.61-.1,1.26-.21,1.94Zm1.05,53.22c-.07.34-.15.69-.23,1.05-.06-.15-.11-.3-.17-.44.03-.15.06-.3.08-.45.14-.19.27-.38.4-.58l-.09.42Zm.64-32.96c-.07-1.02-.14-2.04-.22-3.05.37.08.77.12,1.19.14.03,0,.05,0,.08,0-.35.97-.7,1.94-1.04,2.91Z"/>
      <path class="cls-6" d="m169.8,94.23c-.86-23.8-.99-26.74.31-47.39l.17-2.77c.52-8.32,1.61-17.75-1.43-26.58-.5-1.45-2.07-2.36-3.74-2.28-.45-1.03-1.47-1.89-3.03-2.22-1.73-.38-3.62-.11-5.45.28-.49-.2-1.02-.32-1.55-.33-.51,0-1.03.08-1.51.27-.62.23-1.12.62-1.5,1.08-.41.08-.82.17-1.23.25-1.54-.95-3.29-1.7-5.25-2.18-5.92-1.46-12.57-.77-18.6-.3-.92.07-1.85.16-2.77.24-19.48-2.25-39.16-2.15-58.64.3-1.47-.23-2.94-.46-4.42-.66-3.16-.44-6.34-.84-9.54-1.07-.56-.23-1.16-.36-1.78-.37-.46,0-.91.08-1.35.2-2.23-.08-4.46-.06-6.69.1-1.88.14-3.75.34-5.61.64-.29-.04-.58-.08-.88-.11-.9-.09-1.8.06-2.57.44-.45.22-.88.45-1.29.68-.11.03-.21.07-.32.1-2.59-.27-5.21-.42-7.83-.46-3.61-2.41-10.55-1.01-9.92,3.68.02.17.06.33.09.5-1.2.51-2.04,1.49-2.12,2.67-.9,13.09-.68,26.22-.13,39.16-.67,2.79-1.16,5.61-1.18,8.41-.04,6.05.08,12.08-.19,18.12-.45,10.29.21,20.59.6,30.87.12,3.04.1,6.08.03,9.12-.2,2.37-.3,4.76-.26,7.15-.19,4.25-.4,8.5-.48,12.75-1.13,1.17-2.01,2.76-.86,4.6.83,1.33,2.89,3.36,7.4,2.08,0,0,.02,0,.02,0,.79.04,1.58.08,2.38.11,2.61.32,5.37.35,8.16.22,2.82.04,5.63.06,8.45.03.62.14,1.28.17,1.93.05.13-.02.24-.06.36-.1,6.3-.11,12.6-.4,18.89-.88,1.3.53,2.76.7,4.29.43.12-.02.23-.05.34-.08.22-.02.44-.06.66-.12.39-.1.74-.25,1.05-.44.32.07.67.11,1.01.11.79-.01,1.52-.24,2.12-.61.7,1.18,1.73,2.24,3.25,2.96.54.25,1.13.38,1.72.39.51,0,1.03-.08,1.51-.27,1.04-.39,1.82-1.18,2.11-2.14,0-.03.02-.06.03-.09.83-.12,1.62-.36,2.34-.72.33.3.7.58,1.12.83,1,.6,2.27.73,3.4.36.64-.21,1.19-.57,1.6-1.02.8.07,1.6.15,2.4.23,1.02,1.02,2.56,1.48,4.08,1.17.52-.11.99-.29,1.41-.54,1.02.13,2.04.26,3.06.41.52.96,1.55,1.64,2.77,1.81.66.09,1.32.17,1.98.25,1.04.61,2.39.79,3.62.44,20.61,2.33,41.44,2.04,62-.89.91-.13,2.59-.37,4-1.54,1.72-1.44,1.97-3.45,2.09-4.41,1.2-9.81.37-19.7-.45-29.26-.23-2.72-.13-20.91-.23-23.63Zm-137.93,6.09s-.05,0-.08,0c.36-1.55.72-3.11,1.07-4.66.06,1.62.12,3.25.19,4.88-.37-.12-.77-.19-1.18-.22Zm1.82-56.74l.09-.67c.08-.55.15-1.11.24-1.68.06.23.11.47.17.71-.03.24-.06.48-.09.71-.14.31-.28.61-.41.92Zm.44,87.57c.03-.98.11-2.01.23-3.1.15-1.38.33-2.77.53-4.15.31,2.32.67,4.61,1.1,6.86-.62.12-1.24.25-1.85.39Zm20.87-52.59c-.17.31-.34.62-.49.94-.02-.5-.04-1.01-.06-1.51,0-.04,0-.08,0-.13v-1.51c.27-2.05.54-4.11.79-6.18l.12.23c.09,2.48.15,4.96.19,7.44-.21.21-.39.45-.54.71Zm28.64,4.69c-.09.09-.18.18-.27.27v-3.96c.12-.08.23-.17.34-.25,0,1.31-.03,2.62-.07,3.93Zm12.21-41.59c-.22-.92-.65-1.61-1.17-1.85-.03-.01-.05-.02-.08-.03.25-1.05.5-2.09.77-3.1.05.12.1.24.15.37.15.89.31,1.78.47,2.66-.05.65-.1,1.29-.14,1.94Zm5.58,96.37c-.11-.12-.22-.23-.32-.35-.32-.84-.65-1.68-1-2.52.11-.61.21-1.23.3-1.84.47.87,1.38,1.52,2.48,1.75.05.01.11.01.16.02-.52,1-1.06,1.97-1.62,2.93Zm41.23-51.39c-.11.08-.22.17-.32.25,0-1.31.03-2.62.07-3.93.09-.09.18-.18.27-.27v3.96Zm1.43,62.01s.02-.08.03-.12l.5-2.65c.17.91.36,1.81.59,2.71-.37.02-.74.05-1.12.07Zm6.06-84.75v-1.48c.18-.17.35-.34.51-.53-.18.67-.35,1.34-.51,2.02Zm11.6-10.49c-.15,3.08-.33,6.16-.53,9.25-.31-5.17-.67-10.27-1.1-15.28.62-.28,1.24-.57,1.85-.87-.03,2.19-.11,4.48-.23,6.9Z"/>
      <path class="cls-4" d="m92.69,188.23c-.23.11-1.3,1.38-1.53,1.49-1.44.68-1.45,3.13,0,3.81.45.21.91.41,1.37.6-2.69.36-4.87,1.77-6.91,3.62-1.85,1.68-3.69,3.82-6.45,3.46-1.62-.21-3.13-.99-4.57-1.71-1.71-.86-3.41-1.76-5.11-2.66-7.39-3.94-14.61-8.21-21.64-12.76-2.39-1.55-4.6,2.27-2.22,3.81,6.74,4.36,13.65,8.46,20.72,12.26,3.39,1.83,6.95,4.11,10.7,5.1,3.52.93,6.56,0,9.32-2.24,2.02-1.64,3.8-4.12,6.54-4.52,3.27-.47,6.62,1.25,9.79,1.77,3.65.59,7.04-.12,10.24-1.95,3.19-1.82,5.98-4.36,8.82-6.67,3.6-2.92,7.2-5.83,10.79-8.75,2.95-2.4,5.95-5.22,5.94-9.31,0,0-22.04,19.92-29.61,21.75-3.27.79-9.36-3.4-16.18-7.1Z"/>
      <g>
        <path class="cls-7" d="m150.05,68.21c-.03-.73-.65-1.64-1.46-1.55-2.39.25-4.88.4-7.27.07-1.34-3.47-3.19-6.73-5.47-9.67-.49-.63-1.08-.71-1.58-.48-1.94-3.09-4.4-5.78-7.75-7.56-.33-.18-.68-.11-.98.06-2.29-1.29-4.95-1.95-7.57-1.55-2.69.41-4.96,1.88-6.94,3.7-.29.27-.59.54-.89.82-2.12,1.19-3.15,3.4-3.59,5.82-.17.95.96,5.81,1.8,7.15.06.09.12.17.19.24,0,.2-.01.39-.02.59-5.35-.48-10.73.84-16.11.88-4.55.04-6.81-.09-10.2-.34-3.46-.26-6.87-.59-10.36-.29-.86.08-14.58.82-21.17.43-1.09-.13-8.99.13-9.51.09-.6-.05-2.44.09-2.98.13-1.08.08-1.48.72-1.42,1.61.08,1.17-.15,2.34-.16,3.51-.01,2.35,8.64,2.27,9.04,2.14-.19,4.45.15,9.6-.57,14-1.08-.07-1.7.23-2.72.57-1.37.46-2.22,1.21-2.45,2.71-.5,3.29,1.1,6.81,3.36,9.13,2.16,2.21,5.79,3.98,8.79,2.3,2.14-1.2,3-3.55,2.85-5.87,0-.03,0-.05,0-.08,0-.11.01-.22.02-.33.16.08.33.17.49.25.72.37,1.28.21,1.65-.2,2.13.19,4.27.25,6.41.16.15.11.32.21.49.28.4.15,1.93.55,1.98.97.47,3.72,0,7.47-.02,11.2-.01,1.72-.29,2.65.8,4.11,1.01,1.35,6.78.68,7.52.02.21.03.97-.07,1.19-.12.54-.1.8-2.11.74-2.13.13-.65.2-1.32.22-1.99.12-4.51,0-9.04,0-13.56,0-.54.71-14.35.7-14.98-.03-1.13-.09-2.27-.17-3.4.02-.23.04-.47.06-.7.08-.82.19-1.66.91-1.91.17,0,.34-.03.52-.07.29-.07.54-.21.74-.39,2.19-.18,4.38-.26,6.57-.28,8.01.57,16.03.84,24.06.79,0,.05,0,.1,0,.15-.05,2.68-.31,5.33-.81,7.96-.02.11-.04.22-.05.34-.84-.12-1.68-.29-2.51-.49-3.21-.77-6.1-2.54-9.34-3.19-3.06-.62-6.01.21-8.95,1.01-1.81.49-3.18,1.37-3.59,3.32-.35,1.62.23,3.15.66,4.69.27.96.9,1.66,1.96,1.28,3.94-1.4,8.26-1.54,12.31-.54,2,.5,3.92,1.25,5.69,2.3.11.07.23.14.35.23-4.35,2.15-8.58,4.54-12.68,7.15-1.9,1.21-4.73,2.41-4.7,5.04.01,1.32.97,2.45,1.65,3.51.72,1.13,1.44,2.26,2.16,3.4.46.73,1.4.55,1.98.14,3.3-2.36,6.6-4.73,10.07-6.83.84-.51,1.69-1,2.55-1.48.56-.31,1.17-.58,1.68-.97.16-.02.33-.05.49-.07-.11,3.29.12,6.55.67,9.8.25,1.48.57,3.2,2.26,3.63,1.46.37,3.24.13,4.68-.15,1.09-.2,1.65-1.28,1.73-2.31.33-4.43.02-8.87.34-13.3.32-4.6.6-9.2.08-13.79-.05-.44.65-8.67.32-12.29,4.2,1.12,9.22.94,13.54.68.09,0,.16-.02.24-.04-.18,1.35-.78,24.47-.39,34.06.06,1.48.09,3,.29,4.47.15,1.14.56,2.33,1.76,2.71,1.13.36,2.67.1,3.82-.01,1.31-.13,2.48-.32,2.84-1.78.29-1.19.11-2.62.12-3.84.01-1.58.03-3.17.04-4.75.02-2.94.05-5.88.07-8.82.05-6.79.11-13.58.16-20.36,0,0,0,0,0,0,0-.15,0-.3,0-.46,0-.19-.04-.35-.09-.51.14-.15.29-.27.46-.37,2.02.01,4.04-.07,6.06-.25,1.21-.11,2.13-.42,2.41-1.74.25-1.18-.02-2.61-.06-3.81Zm-106.83,25.54c-.08-.29-.13-.59-.14-.9.01,0,.02,0,.03-.01.01.25.05.5.1.73.05.22.1.44.16.66-.06-.16-.11-.32-.15-.48Zm29.45-2.69c-.03.38-.05.75-.08,1.13-.09-.31-.19-.62-.28-.92,0,0,0,0,0-.01.14-.04.26-.11.37-.2Zm-25.12.45c.1-.04.2-.1.29-.17.02.2.05.4.1.6-.13-.14-.26-.29-.39-.43Zm4.05,6.18c-.1.27-.24.48-.41.66.14-.55.25-1.1.34-1.65.06.1.11.2.17.3,0,.24-.02.47-.11.69Zm-.19-8.1c-.05-.09-.11-.17-.17-.24.12-1.29.24-2.59.36-3.88.11,1.02.23,2.04.34,3.06-.26.3-.45.68-.53,1.07Zm11.51-1.61c-2.51.11-5.01,0-7.5-.25-.02,0-.04,0-.05,0,.41-4.44.54-8.9.42-13.35.23.03.46.07.69.08.75.02,1.45-.16,2.19-.19,1.29-.04,2.53,0,3.82-.11,1.33-.12,2.69.04,4.02-.03.42-.02.84-.04,1.25-.06-.73,4.34-.73,12.62-.83,13.77-1.28-.28-2.94.1-4.02.14Zm9.16,23.27c-.02-.16-.06-.32-.12-.46-.06-.14-.11-.28-.16-.41.39-.05.77-.26,1.02-.64.01,0,.02,0,.03.01.07.02.14.03.2.04-.16.7-.48,1.17-.97,1.47Zm15.85-26.18c-.02-.11-.04-.3-.07-.48.12-.05.23-.1.28-.12.1-.03.19-.05.29-.08,0,.02,0,.05,0,.07,0,.13.03.29.06.45-.19.05-.38.1-.57.15Zm19.87,8.82c.11-.32.15-.65.13-.99.59.02,1.03-.25,1.37-.63.01.16.05.31.11.46.03.07.06.14.09.21-.57.3-1.14.62-1.7.95Zm10.54-42.1c.14-.02.27-.03.41-.05,1.6-.13,3.03.17,4.33.73-1.27-.32-2.63-.4-4.04-.23-.27.03-.53.07-.79.12.05-.18.08-.38.09-.58Zm-4.63,18.33c.01.12.03.25.06.37-.14.02-.26.06-.38.12-.03-.03-.06-.06-.09-.08.16-.1.3-.24.41-.4Zm-.24,17.92c-.12.16-.23.32-.35.48-.04-.2-.12-.38-.24-.54-.1-.16-.19-.33-.29-.49.56,0,1.12,0,1.67-.05-.31.12-.59.34-.79.61Zm1.67-.69s-.07-.02-.1-.02c.04,0,.08-.01.12-.02,0,.01-.01.03-.02.04Zm.92,7.83c-.11-.21-.27-.38-.47-.5-.04-.02-.07-.04-.11-.06.27-.21.49-.49.65-.8-.02.45-.04.9-.06,1.35Zm14.01-28.66c-2.12-1.12-4.55-.93-6.86-.97-2.27-.04-3.87-.64-5.33-2.47-4.45-5.6,1.36-6.59,2.72-6.59s2.48.29,3.46.8c.45.78,1.01,1.48,1.72,2.13,1.96,2.53,4.79,7.37,4.31,7.12Zm4.28-.33s-.02-.05-.04-.08c-.08-.14-.16-.28-.23-.42.01,0,.02-.01.03-.02.17-.12.3-.28.41-.45,0,.01.02.02.03.03-.13.26-.2.59-.2.94Zm.73,45.42s-.03,0-.05,0c0-.06,0-.11-.01-.17.05.05.09.1.14.15-.03,0-.06.02-.08.03Zm.49-35.13s-.07-.07-.11-.11c0-.13,0-.26,0-.4.04.1.08.19.13.29,0,.07-.01.15-.02.22Zm2.52-4.73c-.05.28-.04.58.02.87-.09-.17-.19-.32-.3-.46.12-.11.21-.25.28-.41Zm.34,39.65s-.08.01-.13.02c-.04,0-.08-.01-.13-.01.11-.15.19-.3.25-.45,0,.09,0,.27,0,.44Zm.23-29.4c-.18-.17-.4-.29-.64-.34-.01-.63-.02-1.26-.03-1.89,0-.15-.02-.3-.04-.45.02-.3.05-.61.07-.91.04.33.09.65.14.97.06.4.23.87.53,1.18,0,.48,0,.96-.01,1.44Zm-.35-8.84c.04.06.07.13.12.19-.02.05-.04.1-.06.16,0-.11-.03-.23-.05-.34Zm.83-2.61c-.48.12-.79.44-.95.84.01-.08.02-.16.02-.24.01-.65.55-.79,1.02-.62-.03,0-.06.01-.09.02Zm7.06-.12c-.49.04-.99.06-1.48.09-.08-.09-.16-.17-.26-.23,1.06,0,2.13-.05,3.18-.14,0,.07,0,.14,0,.2-.47.08-1.02.05-1.45.08Z"/>
        <path class="cls-7" d="m68.14,59.83c1.17.48,2.39.76,3.66.81.49.02,3.15.02,3.57-1.2.62-1.84.78-3.66.82-5.59.02-.77-.54-1.44-1.34-1.28-.13.03-.26.08-.38.14-.64-.28-3.56-.4-3.97-.03-.09.08-3.05-.55-2.96.89.05.81.1,2.07.15,2.88.02.27.07.48.15.66,0,.13.02.25.03.38-.57.8-.71,1.95.26,2.35Z"/>
      </g>
      <path class="cls-2" d="m147.33,126.6c0-.23-.02-.47-.06-.7-.08-.7-.32-1.35-.57-1.99-.24-.5-.56-1.14-.98-1.72-.81-1.17-1.59-2.23-2.36-2.96-.92-.87-1.87-1.69-2.79-2.47l-.23-.2c-1.03-.9-2.05-1.78-2.98-2.77-.45-.5-1.16-1.5-1.39-2.05-.02-.05-.08-.2-.08-.31v-.1c-.02-.19-.04-.41-.08-.58-.11-.47-.33-.91-.7-1.34l-.38-.35c-.59-.47-1.35-.71-2.05-.65-.76.05-1.6.65-2.12,1.2-.26.28-.37.86-.5,1.2-.14.34-.19.7-.22,1.02-.07.54-.15,1.07-.24,1.61-.17,1.03-.39,2.11-.63,3.17l-.88,3.21c-.23.9-.54,1.79-.84,2.66l-.15.43c-.42,1.18-.81,2.12-1.23,2.95-.35.7-.91,1.71-1.65,2.42-.39.34-.71.55-1.02.64l-.12.04c-.07,0-.13.02-.23.04-.03,0-.07.02-.15.02h-.28s-.04,0-.06,0c-.65-.46-.93-1.54-.98-2.43,0-.14,0-.28,0-.4l.02-.48c0-.22.02-.44.04-.66l.02-.28c.05-.65.11-1.29.17-1.94.28-2.7.64-5.35.98-7.82.64-4.56,1.37-9.19,2.08-13.67l.92-5.95c.09-.66.19-1.31.27-2l.05-.66c0-.22,0-.42-.01-.65-.04-.54-.13-1.02-.3-1.48-.14-.4-.49-1.14-1.23-1.68-.32-.23-.66-.4-1.03-.51-.17-.05-.27-.07-.44-.1-.13-.02-.27-.04-.4-.05-.36-.04-1.07-.06-1.79.2-.6.2-1.18.6-1.63,1.12-.34.39-.61.84-.83,1.38-.17.42-.32.9-.38,1.28l-.37,2.07c-.56,3.54-1.07,7.09-1.59,10.63l-.4,2.77c-.47-.05-.96-.07-1.44-.06-1.38.03-2.75.37-3.96.97-1.1.53-2.13,1.3-3.15,2.35-.76.8-1.46,1.72-2.2,2.9-1.25,2.02-2.13,4.23-2.64,6.56-.12.57-.23,1.15-.31,1.72-.08.58-.15,1.12-.2,1.72-.04.59-.08,1.22-.04,1.82l.04.71c-.19.17-.39.34-.6.49-.42.32-.84.57-1.17.7-.15.06-.27.08-.28.1-.06-.04-.23-.22-.38-.54-.1-.19-.18-.41-.25-.62-.08-.24-.14-.5-.2-.76-.11-.51-.18-1.05-.24-1.68-.1-1.19-.09-2.39.02-3.55.11-1.15.29-2.37.56-3.61.13-.6.27-1.2.43-1.8l.25-.93c.05-.18.09-.34.15-.59.02-.09.04-.18.06-.33l.03-.27c0-.07,0-.12,0-.15,0-.15-.02-.3-.06-.46-.14-.59-.44-.97-.66-1.21-.24-.25-.46-.42-.68-.56-.3-.2-.77-.47-1.32-.62-.45-.14-.93-.2-1.43-.2-.06,0-.14,0-.22,0-.07,0-.14,0-.26.02-.15.02-.29.05-.42.08-.25.06-.46.14-.68.23-.37.16-.7.32-1,.5-.02-.15-.04-.29-.07-.44-.15-.74-.46-1.45-.9-2.06-.41-.56-.92-1.05-1.53-1.46-.53-.37-1.13-.65-1.84-.88-.65-.2-1.32-.31-2-.31h-.05c-1.49,0-2.81.38-3.82,1.11-.55.38-1.04.89-1.47,1.52-.4.6-.68,1.23-.84,1.86-.21.75-.2,1.52-.17,2.02.04.67.16,1.3.34,1.88.38,1.24,1.14,2.39,2.16,3.24.64.54,1.37.98,2.15,1.31-.33,1.24-.67,2.35-1.01,3.35-.46,1.31-1.03,2.83-1.82,4.18-.34.62-.76,1.21-1.23,1.75-.49.56-.99.96-1.45,1.18l-.2.09c-.08.03-.16.07-.25.1-.12.04-.25.07-.37.08-.25.03-.42.02-.57-.05-.31-.13-.65-.58-.9-1.17-.24-.58-.36-1.22-.35-1.89,0-.76.06-1.56.12-2.31.13-1.58.28-3.15.44-4.73l.49-4.77.04-.48c.06-.65.12-1.32.07-2.09-.03-.42-.1-.97-.35-1.54-.28-.66-.86-1.21-1.57-1.46-.29-.09-.61-.14-.92-.16-.15-.01-.35-.01-.53,0-.18.02-.35.05-.54.1-.36.1-.69.27-.98.48-.85-.38-1.8-.59-2.8-.63-1.28-.04-2.54.19-3.66.66-1.09.46-2.12,1.15-3.04,2.04-.8.76-1.52,1.65-2.22,2.72-1.25,1.89-2.18,4-2.77,6.28-.25.98-.52,2.16-.6,3.4l-.11,1.74.02.66c-.09.05-.18.09-.27.14-.37.2-.73.42-1.05.62-.63.39-1.25.74-1.83,1.02-.68.32-1.27.54-1.82.67-.6.14-1.19.22-1.77.21-.51-.05-.91-.14-1.25-.25-.36-.12-.59-.28-.69-.4-.01-.02-.07-.1-.13-.26-.06-.15-.11-.33-.14-.51-.07-.37-.1-.8-.09-1.32.03-1.95.46-3.91,1.25-5.83.44-1.05.88-1.9,1.37-2.62.55-.82,1.15-1.43,1.75-1.79.31-.18.64-.31.9-.36.16-.03.3-.04.49-.03h.87c.66,0,1.38-.04,2.28-.36.6-.23,1.07-.55,1.45-.99.53-.6.73-1.41.74-1.96h-.62s.62-.15.62-.15c-.03-.54-.18-1.09-.43-1.55-.23-.44-.58-.85-.99-1.19-.7-.57-1.43-.83-2.12-1.04-.7-.19-1.33-.3-1.92-.33l-.25-.02c-.22-.02-.44-.04-.71-.05h-.12c-.29,0-.58.01-.85.05-.68.06-1.35.2-1.97.41-.64.2-1.25.48-1.82.81-1.01.58-1.97,1.37-2.93,2.43-1.5,1.72-2.68,3.69-3.6,6.04-.41,1.06-.75,2.18-1,3.33-.13.57-.23,1.13-.31,1.69-.08.43-.1.86-.12,1.27,0,.17-.02.33-.03.49-.12,1.25-.04,2.44.07,3.55.17,1.38.46,2.57.89,3.63.55,1.37,1.39,2.54,2.41,3.4,1.03.88,2.39,1.52,3.83,1.8,2.26.41,4.66.2,7.34-.64,1.08-.34,2.14-.77,3.24-1.31.31-.16.63-.32.94-.5.52.65,1.12,1.19,1.78,1.61.75.47,1.6.81,2.47.99.82.17,1.64.22,2.51.15,1.52-.12,3.04-.65,4.52-1.58.38-.24.75-.51,1.14-.81.46.49.96.91,1.5,1.26,1.23.8,2.79,1.24,4.33,1.24.22,0,.43,0,.65-.03,1.58-.06,3.16-.46,4.57-1.16,1.3-.65,2.52-1.59,3.63-2.78.88-.93,1.68-2.04,2.53-3.5l.5-.91c.1-.2.2-.4.29-.61l.08-.16c.09.54.19,1.02.32,1.49.21.77.46,1.42.8,2.03.71,1.46,1.64,2.63,2.78,3.45,1.25.92,2.9,1.49,4.4,1.51.32.01.79.03,1.23,0l.64-.09c.16-.03.32-.07.49-.12l.12-.03c.71-.2,1.4-.51,2.12-.94.32-.19.63-.41.96-.66.44.48.94.89,1.46,1.22.72.46,1.56.81,2.44,1,.81.17,1.62.22,2.47.15,1.5-.11,3.04-.65,4.44-1.53.46-.29.9-.61,1.34-.97.47.5.98.92,1.53,1.26,1.32.85,3.05,1.27,4.71,1.16,1.54-.06,2.99-.39,4.32-.99,1.37-.63,2.61-1.58,3.57-2.75.23-.28.47-.58.66-.87l.28-.42c.1-.15.2-.31.29-.46.21-.35.4-.73.56-1.09.08.3.18.6.31.9.27.54.61,1.17,1.08,1.76l.71.79c.17.17.36.32.56.47.08.06.17.13.31.24.54.34,1.18.72,1.89.92.63.21,1.33.33,2.07.36.68.03,1.38-.02,2.08-.16,2.64-.6,4.89-2.76,5.73-5.51.21-.63.34-1.3.41-1.96.03-.25.04-.51.05-.76v-.31c0-.1,0-.2,0-.3Zm-12.59-4.48c.1-.35.19-.7.28-1.06l1.4,1.19c.75.62,1.45,1.21,2.12,1.83.5.46.88.84,1.21,1.21.41.46.7.85.85,1.16.04.08.13.3.15.46,0,.04,0,.08,0,.13v.09c0,.11-.02.22-.03.34-.07.44-.21.82-.42,1.1-.2.27-.51.49-.83.59-.29.09-.61.07-.9-.07-.34-.16-.64-.43-.96-.86l-.06-.08c-.37-.47-.79-1-1.37-1.47-.41-.33-.82-.54-1.25-.65-.22-.05-.43-.08-.61-.08-.07,0-.13,0-.19.01-.14,0-.28.03-.39.06-.04,0-.07.01-.1.02.04-.12.07-.24.11-.37l1.02-3.56Zm-20.94,1.14c-.08.56-.45,1.93-.52,2.45-.06.41-.16.99-.34,1.3-.26.35-.21.51-.64.8-.48.3-.93.51-1.34.62-.24.07-.6.06-.62.05-.5-.23-.58-.55-.64-.98l-.08-.77c-.04-.23-.07-.45-.1-.72l-.06-.53c-.1-.86-.13-1.87.06-2.78.2-.99.5-2.01.93-2.95.44-.98,1.03-1.85,1.72-2.51.57-.57,1.98-1.73,2.6-1.99-.05.34.04,1.46,0,1.8-.07.56-.69,4.18-.97,6.21Zm-44.24,2.57c-.42.76-2.33,2.11-2.92,2.63-.31.28-.65.46-.9.48-.04,0-.11.01-.22-.23-.12-.28-.17-.69-.16-1.22,0-.18.03-.36.05-.54l.03-.19c.03-.24-.08-1.62.42-3.65,0,0,.68-1.94,1.16-2.91.5-1.02.93-1.86,1.39-2.63.43-.72,1.43-1.36,2.02-1.94.3-.28.51-.47.85-.61l.12-.05c.06-.03.11-.05.15-.06.02.57,0,1.15-.06,1.71-.09.81-.44,1.6-.63,2.47-.44,1.98-1.3,6.75-1.3,6.75Z"/>
      <path class="cls-2" d="m125.48,141.11c1.22,1.09,3.21,1.39,3.84,2.9.43,1.04-.03,2.27-.77,3.12-.74.85-7.65,9.4-10.43,12.86-1.78,2.21-9.85,12.46-12.3,15.26-1.01,1.15-5.97,7.28-7.36,9.26-4.28,6.11-9.66,11.63-13.74,17.62l.15-1c-.43,1.59-2.28,2.44-3.92,2.31s-3.11-1.01-4.52-1.86c-9.5-5.71-19.15-11.15-28.95-16.32-1.2-.63-2.44-1.29-3.26-2.37s-.86-2.44-.04-3.52l.86-1.22c4.41-5.01,7.52-8.54,11.93-13.55,3.47-3.94,6.94-7.88,10.41-11.82,6.79-7.71,13.58-15.42,20.36-23.13.7-.79,1.44-1.61,2.44-1.95,2.15-.72,4.33,1.1,6.59,1.15l28.7,12.25Z"/>
      <path class="cls-5" d="m98.81,141l-1.27-.32c.02-.21-.09-.42-.35-.47-1.09-.21-2.18-.69-3.26-1.2-1.13-1.68-3.18-2.21-5.09-1.91-.12-.08-.25-.15-.4-.19-.43-.12-.89,0-1.19.34-.12.13-.2.28-.27.44-.06.03-.13.05-.19.08-1.48.79-2.66,2.03-3.69,3.33-1.2,1.51-2.32,3.08-3.48,4.62-.35.46-.69.93-1.04,1.39-.22.27-.45.54-.67.81-1.75,2.13-3.51,4.26-5.26,6.39,0,0,0,.02-.01.03-.01,0-.03,0-.04,0-.53.14-.44,1.05.13.98.05,0,.09-.02.13-.03,0,0,0,0,0,0,2.37-.61,4.73.35,7.12.3.53-.01,1.06-.07,1.57-.19.29.08.59.16.88.25.32.09.54-.12.6-.37.18,0,.36-.02.53-.06,1.61-.43,1.73-2.4,2.04-3.74.16-.69.36-1.36.57-2.03.85-1.19,1.7-2.38,2.54-3.56,2.19-1.04,4.38-2.08,6.56-3.12.34-.16.3-.62.05-.83.4-.16.8-.32,1.2-.46.67.16,1.34.33,2.01.49.62.15.89-.81.27-.96Zm-8.25-.89c.19.18.38.37.57.55-.38,0-.77.02-1.15.05-.09-.06-.17-.1-.26-.15.14-.29.46-.42.84-.45Zm-7.82,3.78c-.04.07-.05.13-.06.2-.06-.06-.13-.12-.22-.15.78-.97,1.55-1.99,2.38-2.93,0,.06-.01.12-.02.19-.84.76-1.56,1.67-2.09,2.7Zm6.73-.92s.01-.02.02-.03l1.1-1.23s.01-.03.02-.04c.17,0,.35-.02.52-.02-.55.44-1.1.88-1.66,1.32Zm3.43-1.92c-.09-.16-.27-.3-.45-.32-.03,0-.05,0-.08,0,.01-.1,0-.19-.06-.29.47.11.94.23,1.41.34-.27.09-.55.17-.82.27Z"/>
      <path class="cls-5" d="m115.37,149.11c-1.15-.76-2.62-1.15-3.9-1.65-.04-.02-.09-.03-.13-.05-.55-.32-1.14-.59-1.76-.79-.24-.08-.49-.15-.75-.2-.6-.24-1.2-.47-1.8-.71-.15-.42-.83-.38-.94.06-.25,1.05-.15,2.13.27,3.09,0,.09-.01.19-.02.28-.47,4.78-4.45,8.16-7.88,11.05-.22.19-.16.51,0,.71.14.17.28.35.42.52-.04.11-.07.22-.04.33.49,2.36,1.65,4.51,3.34,6.22.25.25.6.15.79-.1.1-.14.2-.28.3-.42-.26.55.53.99.87.47,1.08-1.62,2.09-3.29,3.07-4.97.65-.72,1.29-1.44,1.94-2.15,1.92-2.14,3.85-4.27,5.77-6.42.72-.8,1.5-1.7,1.67-2.8.16-1.03-.37-1.9-1.21-2.46Zm-6.31,4.56c-.27.2-.55.39-.82.59.12-.25.24-.5.38-.75.1-.09.2-.18.3-.28.06-.01.11-.03.16-.05.02.1.07.19.14.26-.06.08-.11.15-.17.23Zm-7.33,5.63c-.27.44-.53.89-.78,1.34-.22-.08-.37-.2-.39-.39-.03-.48.66-.76,1.17-.95Zm3.68-1.48c-.97.98-1.95,1.95-2.92,2.93-.04,0-.09,0-.14,0,.99-1.02,2-2,3.06-2.94Zm-4.31,6.84c-.02.05-.03.1-.04.16-.3-.54-.58-1.1-.79-1.68.16.19.32.39.47.58.11.29.25.56.42.82-.02.04-.04.08-.06.12Zm1.4,2.14c-.39-.44-.74-.9-1.06-1.38.11.04.22.03.33-.05.13.16.26.31.4.47-.13.3.03.66.43.7.03,0,.06,0,.1,0-.07.09-.13.18-.2.27Zm.76-1.91c-.03-.23-.09-.45-.15-.66.38-.31.76-.63,1.14-.94,0,0,0,0,0,.01.12.22.16.45.15.67-.37.32-.76.62-1.14.93Zm12.17-12.88c0-.08.03-.15.02-.23-.01-.28-.12-.54-.27-.76.07-.13.15-.26.22-.39.02-.03.02-.06.03-.09.09.16.17.33.19.53.03.33-.05.64-.18.94Z"/>
      <path class="cls-3" d="m139.84,117.42c-2.13-1.83-4.79-4.11-4.79-5.53,0-.57-.22-1.08-.58-1.47,0,0-.15-.19-.22-.2-.35-.29-.79-.48-1.28-.51-1.18-.05-2.18.79-2.3,1.95-.15,1.43-.45,3.24-.87,5.16l-.61,2.32c-.16.63-.31,1.22-.47,1.79-1.43,4.64-3.13,9.42-6.45,9.19-.1-.01-.23-.03-.37-.07-.59-.32-1.06-.89-1.38-1.78-.23-.66-.35-1.36-.35-2.12,0-3.27.92-11.54,2.77-24.83.74-5.23,1.11-8.11,1.11-8.65,0-1.41-.42-2.24-1.26-2.47-.23-.06-.48-.09-.73-.09-1.11,0-1.85.73-2.22,2.18-.08.33-.16.74-.23,1.22l-2.36,16.75c-.86-.37-1.83-.55-2.92-.55-2.92,0-5.41,1.58-7.47,4.73-1.69,2.55-2.73,5.49-3.12,8.8-.1.74-.15,1.43-.15,2.09s.03,1.27.08,1.86c-.47.46-2.5,2.42-4.12,2.43-1.07,0-1.88-.79-2.42-2.38-.39-1.2-.58-2.75-.58-4.64,0-2.55.51-5.51,1.52-8.85.14-.47.2-.76.2-.86,0-.34-.28-.68-.85-1-.49-.29-1.04-.43-1.65-.43-.54,0-1.34.34-2.41,1.02-.78.56-1.38.96-1.79,1.19.11-.97.16-1.76.16-2.38,0-1.53-.72-2.73-2.17-3.6-.88-.5-1.82-.76-2.8-.76-1.93,0-3.33.74-4.21,2.21-.44.74-.66,1.52-.66,2.35,0,2.25.88,3.96,2.66,5.14.66.45,1.38.76,2.16.96-1.91,7.4-4.23,11.57-6.97,12.51-.37.14-.74.2-1.11.2-.91,0-1.64-.58-2.19-1.73-.35-.77-.52-1.6-.52-2.49,0-1.31.29-4.73.87-10.27.19-1.84.29-3.04.29-3.6,0-1.35-.37-2.17-1.11-2.44-.27-.08-.56-.12-.87-.12-.66.02-1.18.32-1.54.89-.94-.59-2.04-.89-3.3-.89-2.9,0-5.39,1.58-7.45,4.73-1.69,2.57-2.75,5.52-3.15,8.83-.08.74-.12,1.43-.12,2.09,0,.56.02,1.09.06,1.6-.46.14-1.07.47-1.87.98-1.69,1.1-3.16,1.79-4.41,2.06-.68.16-1.36.23-2.04.23-1.58-.14-2.63-.57-3.15-1.31-.45-.66-.67-1.64-.67-2.93,0-2.53.57-5.05,1.72-7.55,1.25-2.71,2.76-4.33,4.55-4.85.35-.1.71-.15,1.08-.15h.99c1.63-.06,2.46-.55,2.48-1.48-.08-1.2-1.15-1.94-3.21-2.24-.45-.06-.87-.09-1.26-.09-2.9,0-5.39,1.58-7.47,4.73-1.69,2.57-2.74,5.52-3.15,8.83-.08.74-.12,1.43-.12,2.09.04,6.17,2.47,9.27,7.3,9.29,2.14,0,4.48-.59,7.01-1.77,1.32-.62,2.34-1.26,3.08-1.89.49,1.17,1.16,2.09,2.04,2.73.92.64,2,.96,3.24.96,2.01,0,3.99-.93,5.96-2.8.33-.31.62-.61.88-.91,1.14,2.45,2.95,3.69,5.44,3.71,5.93,0,10.1-5.03,12.52-15.1.14-.58.27-1.17.38-1.77.77-.17,1.43-.41,1.97-.7-.24.91-.42,2.42-.54,4.53-.04.7-.06,1.35-.06,1.97,0,3.19.38,5.44,1.13,6.74,1.03,2.21,2.64,3.44,4.82,3.72.25.02.5.01.73.03,2.7.17,5.2-2.67,5.53-3.06.5,1.2,1.2,2.14,2.12,2.77.89.62,1.96.93,3.18.93,2.02,0,4.02-.94,5.98-2.82.27-.25.52-.5.73-.76,1.23,2.42,3.05,3.64,5.49,3.66,3.33,0,5.88-1.32,7.65-3.97.35-.5.65-1.04.91-1.62.69-1.55,1.39-3.56,2.1-6.02.58-1.72,1.03-3.45,1.37-5,.91.9,1.93,1.77,2.93,2.63,2.3,1.97,5.16,4.43,5.14,6.16-.02,1.6-.73,2.83-1.94,3.36-1.04.45-2.36.22-3.4-1.15-.84-1.11-1.76-2.29-2.91-1.94-1.16.35-.9,2.51-.39,3.61,2.36,5.05,7.51,3.9,8.46,3.48,2.83-1.23,4.53-3.96,4.57-7.31.04-3.76-3.37-6.69-6.66-9.52Zm-67.58-.71c-.37,2.99-.93,5.9-1.69,8.72-.27.99-.49,1.59-.64,1.83-.54.7-1.27,1.36-2.19,2-.78.54-1.44.81-1.98.81-1.01,0-1.6-.94-1.78-2.81-.04-.33-.06-.68-.06-1.04,0-2.51.56-5.03,1.69-7.56,1.24-2.82,2.76-4.5,4.55-5.04.37-.1.74-.15,1.11-.15.41,0,.85.12,1.34.35-.21,1.82-.33,2.78-.35,2.9Zm15.22-2.7c-1.34-.43-2.02-1.16-2.04-2.17,0-.54.28-.89.85-1.06.14-.04.26-.05.38-.05.56,0,.91.25,1.05.76.04.13.06.24.06.35,0,.33-.1,1.05-.29,2.17Zm26.51,13.3c-.47.62-1.15,1.26-2.04,1.91-.86.6-1.57.9-2.13.9-1.01,0-1.61-.94-1.78-2.81-.04-.33-.06-.68-.06-1.04,0-2.51.56-5.03,1.69-7.56,1.25-2.82,2.76-4.5,4.55-5.04.37-.1.74-.15,1.11-.15.47,0,.92.13,1.37.38-.41,3.69-1,7.21-1.78,10.55-.37,1.55-.68,2.5-.93,2.87Z"/>
      <g>
        <path class="cls-7" d="m83.74,202.26c-.21.13-.43.24-.69.34-.25.11-.53.2-.85.27-.17.04-.44.09-.77.1-.33.01-.73-.02-1.17-.12l-.08-.02s-.07-.02-.11-.03l-.22-.06c-.14-.04-.29-.09-.43-.15-.29-.11-.58-.23-.88-.38-.59-.29-1.18-.63-1.78-1-1.22-.73-2.47-1.47-3.7-2.2-4.91-2.91-9.43-5.46-9.43-5.46,0,0-4.51-2.57-9.52-5.29-1.26-.68-2.54-1.37-3.79-2.04-.63-.33-1.24-.66-1.84-.98-.6-.32-1.19-.62-1.72-.92-.27-.15-.52-.3-.76-.46-.12-.08-.23-.16-.34-.24-.06-.04-.11-.08-.16-.12l-.13-.1c-.15-.13-.29-.26-.41-.38-.24-.24-.4-.46-.49-.6-.34-.53-.48-1-.53-1.48-.04-.48,0-.98.24-1.57-.49.4-.82.91-.94,1.52-.12.61-.02,1.33.43,2.05.13.19.33.46.61.75.14.15.3.29.48.44l.15.12c.06.05.12.1.18.14.12.09.25.18.38.27.26.18.54.34.82.5.57.32,1.15.62,1.75.94.6.32,1.22.65,1.84.98,1.25.67,2.53,1.36,3.78,2.04,5.01,2.72,9.51,5.28,9.51,5.28,0,0,4.51,2.55,9.41,5.45,1.22.73,2.47,1.48,3.69,2.2.61.37,1.22.73,1.86,1.04.32.15.64.29.97.41.16.06.33.11.49.16.08.02.17.05.25.07.04.01.08.02.12.03l.1.02c.51.11,1,.16,1.41.14.41-.02.74-.08.95-.13.4-.1.74-.24,1.03-.41.29-.17.54-.37.74-.6.41-.45.65-1.02.67-1.65-.32.55-.71.86-1.13,1.12Z"/>
        <path class="cls-7" d="m69.99,170.79c.94.54,1.86,1.07,2.7,1.57.86.49,1.64.94,2.31,1.32.67.39,1.23.66,1.62.87.39.2.61.32.61.32,0,0,.87.46,2.23,1.18,1.35.72,3.19,1.68,5.07,2.73.12.07.22.13.33.2l.35.22.7.44c.47.29.94.57,1.41.84.47.27.94.53,1.4.78.23.12.46.24.68.36.22.11.43.22.64.33.61.31,1.12.55,1.38.67.94.43,1.53.56,2.41.69-.71-.53-1.2-.86-2.12-1.3-.25-.12-.75-.36-1.36-.66-.21-.11-.42-.21-.63-.32-.22-.12-.44-.23-.67-.35-.45-.24-.91-.5-1.38-.77-.47-.27-.93-.55-1.4-.83l-.69-.44-.34-.22c-.12-.07-.25-.15-.37-.22-1.91-1.07-3.74-2.02-5.09-2.74-1.35-.71-2.23-1.17-2.23-1.17,0,0-.22-.12-.61-.32-.38-.21-.95-.49-1.61-.87-.66-.38-1.44-.82-2.29-1.31-.85-.49-1.77-1.02-2.71-1.57-1.89-1.08-3.88-2.18-5.58-3.08-.59-.31-1.12-.59-1.57-.83-.23-.12-.42-.22-.54-.28-.92-.47-1.49-.63-2.36-.83.67.58,1.14.95,2.05,1.43.39.2,1.16.61,2.1,1.11,1.7.9,3.68,1.99,5.56,3.07Z"/>
        <path class="cls-7" d="m57.45,168.9c.65.6,1.11.98,2.02,1.48,1.12.61,4.47,2.44,7.54,4.12,1.87,1.02,3.66,1.99,4.95,2.73.65.37,1.16.69,1.53.92.37.23.58.35.58.35,0,0,.84.5,2.15,1.22,1.32.73,3.1,1.7,5,2.69.48.25.95.49,1.46.73.49.22.96.45,1.43.68.47.24.93.48,1.38.71.44.23.87.46,1.29.67.6.32,1.1.57,1.35.7.92.47,1.49.64,2.35.85-.66-.59-1.13-.96-2.04-1.45-.25-.13-.74-.39-1.34-.71-.41-.22-.84-.44-1.29-.67-.45-.24-.91-.48-1.39-.72-.47-.24-.97-.48-1.46-.7-.47-.22-.95-.47-1.42-.71-1.89-.98-3.67-1.95-4.98-2.68-1.31-.73-2.14-1.21-2.14-1.21,0,0-.21-.12-.57-.34-.36-.22-.9-.56-1.55-.93-1.31-.76-3.09-1.72-4.96-2.74-3.08-1.68-6.43-3.51-7.55-4.11-.91-.49-1.48-.66-2.34-.89Z"/>
        <path class="cls-7" d="m54.85,172.01c.59.66,1.06,1.06,1.94,1.58.12.07.3.17.53.3.44.25.97.54,1.55.86,1.69.93,3.69,2.01,5.6,3.04.96.51,1.89,1.02,2.75,1.48.85.48,1.64.92,2.3,1.29.67.38,1.22.69,1.6.9.38.21.6.33.6.33,0,0,11.83,6.44,14.19,7.73.91.49,1.48.67,2.33.89-.65-.6-1.11-.98-2.01-1.48-2.36-1.29-14.19-7.73-14.19-7.73,0,0-.22-.12-.6-.33-.38-.21-.93-.52-1.59-.9-.67-.38-1.46-.82-2.31-1.3-.86-.47-1.8-.97-2.75-1.49-1.91-1.03-3.91-2.1-5.59-3.03-.93-.52-1.69-.95-2.07-1.16-.89-.51-1.45-.69-2.28-1Z"/>
        <path class="cls-7" d="m53.9,176.49c-.45-.25-.81-.42-1.16-.57-.18-.07-.35-.14-.53-.21-.19-.06-.36-.14-.57-.22.14.16.28.33.42.46.14.14.28.26.43.39.3.25.64.47,1.09.73.12.07.31.17.53.3.11.06.24.13.37.21.37.2.76.42,1.18.64,1.69.91,3.69,1.97,5.61,2.97,1.93.99,3.76,1.94,5.12,2.64,1.37.69,2.25,1.13,2.25,1.13,0,0,.22.11.61.3.39.19.94.48,1.6.85,1.33.75,3.12,1.78,5,2.85,2.78,1.58,5.81,3.31,6.82,3.88.9.51,1.46.69,2.32.93-.64-.61-1.09-1-1.98-1.52-1.01-.57-4.04-2.3-6.81-3.89-1.88-1.07-3.68-2.09-5.01-2.85-.67-.37-1.23-.67-1.62-.87-.39-.19-.62-.3-.62-.3,0,0-.88-.44-2.23-1.13-1.36-.7-3.19-1.65-5.11-2.64-1.92-1-3.92-2.05-5.6-2.97-.58-.32-1.1-.6-1.54-.85-.23-.13-.41-.23-.53-.29Z"/>
        <path class="cls-7" d="m139.96,164.86c-.02-.25-.03-.42-.05-.55-.02-.19-.05-.38-.08-.53-.03-.15-.03-.23-.03-.28,0-.06.06-.18.13-.34.07-.17.1-.34.11-.51.02-.29-.04-.54-.12-.78,0-.02.01-.03.01-.05.06-.38,0-.77-.17-1.07-.16-.3-.39-.51-.63-.68-.24-.17-.51-.3-.8-.43h0s0,0,0,0l-.55-.11s0,0,0,0c-.04-.16-.15-.29-.24-.4-.1-.12-.2-.22-.3-.33-.2-.21-.41-.38-.63-.56-.44-.35-.93-.66-1.59-1.01-.35-.19-1.07-.55-1.94-.99-.67-.33-1.37-.67-2.09-1.02-.73-.35-1.49-.71-2.26-1.07-1.26-.59-2.55-1.19-3.83-1.77.45-.55.9-1.11,1.34-1.65.75-.93,1.49-1.84,2.22-2.73.18-.23.37-.45.55-.68.2-.24.37-.51.51-.78.14-.28.26-.57.33-.87.04-.15.07-.31.08-.47,0-.08.02-.16.02-.24v-.12s0-.04,0-.04h0c0-.3-.07-.59-.15-.84-.04-.13-.1-.24-.15-.35-.05-.11-.12-.21-.18-.3-.26-.36-.52-.59-.7-.73-.66-.5-1.22-.69-1.73-.88-.17-.06-.33-.11-.49-.17-.61-.42-1.22-.77-2.12-1.17-.33-.15-.97-.42-2.01-.87-1.94-.84-4.67-2.01-6.92-2.96-2.25-.95-4.01-1.69-4.01-1.69,0,0-2.11-.88-4.66-1.95-2.55-1.06-5.56-2.29-7.34-3.01-.78-.32-1.16-.47-1.39-.56-.52-.21-.95-.35-1.37-.46.01,0,.02,0,.04,0-.61-.17-1.06-.4-1.55-.63-.49-.23-1-.47-1.71-.71-.19-.07-.49-.16-.87-.26-.38-.1-.86-.19-1.4-.19h-.15c-.07,0-.14,0-.21.01-.14.02-.29.03-.43.06-.14.04-.29.07-.43.11-.14.05-.28.11-.42.17-.54.26-1,.64-1.4,1.03-.41.4-.76.82-1.13,1.24-.37.41-.73.83-1.11,1.26-.81.92-1.64,1.86-2.46,2.8-.09,0-.16-.01-.26,0-.44.04-.96.22-1.48.54-.29.17-.57.36-.84.55-.28.19-.57.39-.87.59-.6.41-1.22.83-1.86,1.27-1.27.87-2.59,1.76-3.77,2.57-2.37,1.61-4.22,2.88-4.22,2.88,0,0-11.54,7.86-13.84,9.43-1.15.79-1.75,1.38-2.52,2.24-.27.16-.53.33-.79.51-.23.17-.47.37-.69.67-.11.15-.21.34-.26.57-.06.23-.06.49,0,.75,0,.01.01.03.02.05,0,0-.02,0-.02,0-.14.11-.24.26-.28.44-.06.39.11.69.21.94.06.13.11.23.14.34.03.11.06.22.07.34.03.23.01.49-.07.75-.01.03-.02.06-.04.11-.01.03-.03.07-.05.14,0,.02,0,.04-.01.06,0,.03-.01.05-.01.08,0,.05-.01.11,0,.18,0,0,0,.12.07.3.02.04.04.09.07.14.01.02.03.04.04.07l.02.03s-.01.03-.04.11c-.09.25-.15.58-.16.94,0,.14,0,.32,0,.47.01.15.02.26.02.26,0,0,.01.13.03.3.02.16.03.34.05.45.08.81.01,1.13-.03,1.33-.02.07-.03.14-.06.21,0,.02-.01.05-.02.06-.02,0-.03,0-.05,0,0,.04.02.06.03.1-.02.05-.03.09-.04.15-.03.13-.03.32.02.46.05.16.12.25.17.32l.11.15s.05.08.08.13c.04.08.08.19.11.29,0,.01,0,.02.01.03,0,0,0,0,0,0,.07.24.13.54.28.82.07.14.16.27.28.38.12.11.27.19.43.21-.26-.19-.31-.47-.33-.71,0-.07,0-.14,0-.21.11.06.19.1.19.1,0,0,.17.08.36.16.19.08.4.15.47.17.04.01.08,0,.12,0-3.24,3.68-6.04,6.86-7.27,8.25-.97,1.11-1.39,1.85-1.98,2.97,1.04-.72,1.72-1.24,2.7-2.34,1.94-2.2,7.79-8.85,13.11-14.9l2.41,1.3s-.06-.02-.1-.03c.66.59,1.12.97,2.03,1.46,2.45,1.31,14.73,7.84,14.73,7.84,0,0,.22.11.6.31.38.2.94.48,1.62.8.17.08.35.16.53.25.17.08.36.18.54.28.38.2.78.43,1.19.67.83.48,1.72,1,2.62,1.56.47.29.95.54,1.42.79.48.25.95.5,1.42.74.93.49,1.83.96,2.66,1.39.6.31,1.1.57,1.35.7.58.3,1.03.47,1.5.62l3.55,1.92s0,0,0,0c0,0,0,0,0,0,.26.22.5.41.74.59-.1.12-.19.25-.29.37-.27-.11-.54-.2-.86-.3.23.23.42.42.64.59-.14.18-.27.36-.41.54-.14-.03-.28-.06-.44-.1.11.09.22.18.32.26-.07.09-.13.18-.2.27-.21-.06-.42-.11-.67-.15.18.14.34.27.5.38-.11.16-.23.3-.34.46-.2-.08-.41-.15-.65-.25.16.19.31.34.47.48-.05.07-.11.14-.16.22-.21-.09-.43-.18-.68-.27.18.2.33.36.5.52-.09.12-.18.25-.27.37-.15-.06-.3-.11-.48-.17.12.13.23.24.34.35-.09.13-.19.25-.28.38-.16-.07-.33-.13-.52-.2.13.14.25.27.37.39-.08.11-.17.22-.25.34-.2-.08-.41-.16-.65-.24.17.18.32.32.47.46-.09.11-.17.23-.26.34-.18-.07-.37-.13-.58-.2.15.15.29.29.43.41-.02.03-.04.06-.07.08-.12-.05-.24-.09-.38-.14.09.1.18.19.27.28-.13.16-.26.33-.39.49-.13-.03-.26-.06-.4-.09.1.08.19.16.29.23-.08.1-.16.21-.24.31-.21-.08-.43-.15-.69-.22.18.17.34.31.5.45-.12.16-.25.31-.37.47-.32-.09-.66-.16-1.03-.24.26.22.5.42.74.6-1.66,2.06-3.33,4.04-4.82,5.88-.34.42-.66.82-.98,1.22-.16.2-.31.4-.47.59-.14.17-.27.35-.4.52-.13.17-.26.33-.37.48-.23.29-.41.54-.53.7-.89,1.18-1.24,1.97-1.69,3.16.95-.84,1.56-1.42,2.45-2.58.12-.16.3-.4.53-.69.11-.15.24-.31.37-.48.28-.35.57-.72.87-1.1.32-.39.64-.8.98-1.21,1.49-1.84,3.17-3.83,4.85-5.92.4.27.85.54,1.41.84.22.12.57.31,1.31.71.4.22,1.08.6,1.65.93.57.33,1.04.6,1.04.6,0,0,.39.23.89.54.5.31,1.1.68,1.53.95.96.6,1.6.94,1.94,1.1.69.33,1.28.51,1.86.57.58.06,1.14.02,1.75-.16-.62-.13-1.09-.32-1.58-.52-.48-.21-.97-.43-1.61-.75-.31-.15-.91-.47-1.85-1.06-.43-.27-1.04-.65-1.54-.95-.51-.3-.9-.54-.9-.54,0,0-.48-.28-1.05-.61-.58-.33-1.26-.72-1.67-.94-.74-.41-1.11-.59-1.33-.71-.51-.27-.95-.45-1.37-.61.06-.08.12-.15.18-.22.04.03.08.05.12.08.11.06.28.16.65.37.75.43,2,1.15,3.07,1.76,1.07.61,1.96,1.11,1.96,1.11,0,0,.74.42,1.69.96.95.53,2.09,1.19,2.94,1.65.52.26.88.37,1.06.42.38.1.71.1,1.01.02.12-.03.24-.09.35-.16.25.07.48.11.72.12.28,0,.59-.02.96-.13.1-.03.25-.08.43-.15.09-.03.19-.08.29-.13l.13-.07c.06-.03.11-.06.17-.09.11-.06.22-.13.33-.21.21-.15.41-.3.62-.46,1.68-1.26,3.61-2.8,5.45-4.29,1.83-1.49,3.58-2.91,4.88-3.96,1.29-1.06,2.12-1.74,2.12-1.74,0,0,.82-.69,2.1-1.76,1.26-1.08,2.98-2.55,4.77-4.09.9-.77,1.81-1.56,2.7-2.32.89-.75,1.75-1.48,2.54-2.15.37-.31.68-.57.83-.69.42-.35.68-.63.94-.95.05.05.11.09.15.13.07.04.13.07.18.16.02.04.04.09.03.13-.44.38-.84.68-1.23.99-.42.33-.86.68-1.42,1.12-.28.23-.82.64-1.72,1.32-1.9,1.48-4.46,3.6-6.57,5.37-2.1,1.77-3.74,3.16-3.74,3.16,0,0-.69.58-1.76,1.48-1.07.9-2.52,2.12-4.04,3.38-1.53,1.26-3.13,2.57-4.51,3.65-.17.14-.34.27-.5.4-.08.06-.16.12-.24.18-.07.06-.15.11-.22.17-.17.13-.33.24-.48.34-.3.2-.54.35-.7.44-.61.34-1.08.59-1.56.78-.47.19-.95.35-1.58.39.58.26,1.16.35,1.74.3.59-.05,1.19-.26,1.87-.63.18-.1.45-.26.77-.48.16-.11.33-.23.51-.36.08-.06.15-.11.23-.17.08-.06.17-.13.25-.19.17-.13.34-.26.51-.4,1.38-1.09,3-2.4,4.53-3.67,1.53-1.27,2.98-2.49,4.05-3.39,1.07-.9,1.76-1.49,1.76-1.49,0,0,1.64-1.38,3.74-3.15,2.1-1.76,4.67-3.89,6.54-5.34.89-.67,1.46-1.11,1.74-1.34.58-.48,1-.92,1.33-1.38.25-.35.44-.72.62-1.13.02,0,.03-.01.05-.02.04-.02.08-.03.13-.05.09-.03.16-.08.25-.13.06-.06.08-.16.08-.25,0-.09-.01-.18-.04-.28-.03-.09-.09-.19-.14-.27-.07-.13-.14-.24-.18-.33-.02-.05-.02-.08-.02-.11,0-.02.01-.03.02-.04,0,0,.03-.05.06-.11.03-.07.07-.15.1-.3.03-.14.02-.3-.03-.45,0-.01,0-.02-.01-.03.02-.02.04-.03.07-.05-.03,0-.05,0-.08.01-.04-.09-.07-.17-.1-.22-.03-.06-.04-.11-.04-.1,0,0,0,.01.01-.03.01-.03.04-.1.11-.22.07-.13.15-.28.23-.46.16-.36.33-.84.42-1.45.04-.23.06-.57.05-.84,0-.12,0-.22,0-.3,0-.06,0-.08,0-.08,0,0,0-.04.01-.06,0-.02.02-.06.1-.17.04-.05.09-.12.14-.21.06-.09.11-.2.14-.3.07-.2.08-.37.09-.49.01-.25,0-.43,0-.6,0-.17-.01-.31-.02-.43Zm-1.07-1.27s0,0,0,0c0,0,0,0,0,0,0,0,0,0,0,0Zm.11,1.34c0,.11.01.24.02.39,0,0,0,0,0,0-.43.22-.77.42-1.24.81-.59.49-1.81,1.51-3.28,2.73.21-.18.43-.36.63-.54.9-.78,1.77-1.53,2.57-2.22.37-.32.67-.58.82-.71.19-.17.34-.32.48-.47Zm-52.31-33.34c.37-.42.74-.84,1.11-1.26.37-.42.72-.83,1.08-1.18.36-.36.74-.66,1.15-.85.1-.05.2-.09.31-.12.11-.03.21-.06.32-.08.11-.02.22-.03.32-.05.05-.01.11,0,.16,0h.12c.43,0,.83.07,1.17.16.34.09.61.18.8.24.68.23,1.25.39,1.81.48.1.01.2.01.29.02.72.49,1.38.86,2.43,1.29.23.09.61.25,1.39.57,1.78.73,4.78,1.96,7.34,3.01,2.55,1.06,4.65,1.94,4.65,1.94,0,0,1.76.74,4,1.69,2.24.96,4.97,2.13,6.91,2.96,1.03.45,1.67.72,2.01.87.89.38,1.56.58,2.26.74.14.11.27.23.41.33.45.33.95.61,1.46,1.01.14.11.33.28.5.52.17.25.31.57.32.96,0,0,0,.06,0,.12,0,.05,0,.11-.01.16-.01.11-.03.22-.06.33-.06.22-.14.45-.25.66-.11.22-.25.43-.41.62-.17.21-.35.43-.53.65-.72.89-1.47,1.81-2.22,2.74-.5.62-1.01,1.24-1.51,1.87-3.08-1.39-6.02-2.72-8.19-3.7-2.19-.98-3.6-1.62-3.6-1.62,0,0-.35-.16-.98-.44-.62-.29-1.53-.69-2.59-1.21-1.05-.55-2.34-1.2-3.73-1.85-1.4-.66-2.91-1.34-4.46-2.05-3.1-1.41-6.34-2.89-9.09-4.14-1.46-.66-2.66-1.2-3.26-1.47-.89-.4-1.56-.61-2.27-.78-.19-.14-.39-.28-.62-.43-.18-.11-.39-.21-.63-.31.7-.8,1.41-1.6,2.1-2.39Zm-34.47,25.23c-.02-.06-.01-.13,0-.21.05.1.12.21.21.32.19.24.48.48.87.72.13.08.34.2.51.29.17.1.32.18.32.18,0,0,.48.27.75.41,1,.54,1.63.85,1.96,1.01,1.2.59,2.02.8,3.08,1-.26.29-.52.59-.78.89-.54-.32-.88-.55-1.54-.86-.16-.08-.47-.23-.97-.49-.27-.14-.76-.4-.76-.4,0,0-.58-.31-.83-.45-.37-.2-.55-.29-.66-.35-.32-.17-.59-.29-.85-.38-.14-.05-.27-.1-.41-.15,0-.04-.01-.07-.02-.11-.05-.18-.12-.35-.21-.5-.09-.15-.19-.28-.28-.38-.18-.2-.34-.37-.4-.54Zm2.68,9.01c-.1-.04-.42-.16-.7-.3-.28-.13-.53-.27-.53-.27,0,0-.25-.14-.51-.3-.09-.05-.17-.11-.25-.17.01-.03.02-.07.05-.13.02-.06.04-.12.06-.19.1.05.21.11.32.16.29.14.56.26.56.26,0,0,.27.12.56.25.3.13.62.26.73.31.14.05.25.04.38.02-.15.17-.3.34-.45.51-.06-.07-.13-.12-.23-.15Zm.48-.81c-.11-.04-.43-.18-.72-.3-.29-.13-.56-.25-.56-.25,0,0-.26-.12-.55-.26-.15-.08-.3-.15-.44-.22.02-.12.02-.27.03-.43.13.08.29.18.44.26.29.16.56.3.56.3,0,0,.27.14.58.27.31.13.65.25.76.29.21.07.36.03.58-.07-.13-.2-.22-.31-.42-.38-.11-.04-.44-.16-.73-.28-.29-.12-.56-.25-.56-.25,0,0-.26-.13-.54-.29-.28-.16-.57-.34-.67-.41,0,0-.02,0-.03-.01,0-.09,0-.17-.02-.27,0-.08-.02-.19-.03-.3.2.13.41.27.68.41.11.06.29.15.66.35.01,0,.05.03.05.03,0,0,.01,0,.02.02.4.22.83.45.98.53.46.25.8.39,1.17.52-.31.36-.62.71-.93,1.06-.09-.14-.17-.25-.33-.31Zm.32-1.68c-.15-.08-.58-.32-.98-.54-.01,0-.03-.01-.03-.01,0,0-.03-.02-.05-.03-.37-.2-.55-.29-.66-.35-.37-.19-.66-.31-.95-.4,0,0,0-.02,0-.02,0,0,0-.11-.01-.24.02.01.04.03.06.04.15.08.59.31,1.01.48.41.18.79.34.79.34,0,0,.37.16.77.35.4.19.81.43.94.51.2.13.37.16.58.2-.13.15-.26.29-.39.44-.31-.28-.61-.5-1.09-.77Zm1.15-.27c-.14-.09-.58-.35-.99-.54-.41-.2-.79-.36-.79-.36,0,0-.37-.16-.78-.34-.41-.18-.84-.39-.98-.47-.11-.06-.2-.08-.29-.1.01-.21.04-.39.09-.52.31.23.62.42,1.08.64.11.05.3.14.68.32.09.04.31.14.31.14,0,0,.18.09.28.13.51.24.83.39.99.46.55.25.93.37,1.39.47-.19.22-.39.44-.58.66-.09-.21-.19-.36-.41-.51Zm-.19-1.06c-.16-.08-.48-.23-.99-.47-.1-.05-.28-.13-.28-.13,0,0-.22-.1-.31-.15-.38-.18-.57-.26-.68-.32-.47-.22-.82-.33-1.2-.43.04-.07.07-.14.1-.2.06-.13.1-.22.12-.26-.11-.1-.21-.18-.3-.26.21.12.43.23.72.35.11.05.3.13.69.29.24.11.8.36.8.36,0,0,.47.22.72.34.5.24.81.4.98.48.58.29.97.42,1.47.56-.18.21-.37.42-.55.63-.38-.3-.72-.53-1.28-.8Zm.57-.82c-.16-.08-.47-.24-.98-.49-.26-.12-.73-.34-.73-.34,0,0-.57-.26-.81-.36-.39-.17-.58-.24-.69-.29-.34-.14-.63-.22-.87-.3-.01,0-.03,0-.04-.01.07-.27.09-.52.08-.76.07.06.13.12.2.17.22.17.47.32.79.5.11.06.29.16.66.36.25.13.83.44.83.44,0,0,.49.26.76.41.5.26.82.42.99.49.68.31,1.11.39,1.74.43-.2.22-.4.45-.59.68-.4-.36-.73-.62-1.32-.92Zm-4.98-.91h0s0,0,0,0h0s0,0,0,0c0,0,0,0,0,0Zm2.06,6.22c-.06-.02-.26-.09-.43-.16-.17-.07-.33-.14-.33-.14,0,0-.15-.08-.32-.17-.02-.01-.04-.02-.06-.04,0-.01,0-.02,0-.04,0-.13-.01-.28-.04-.44.18.1.31.18.31.18,0,0,.26.14.55.28.29.14.63.27.74.31.05.02.08,0,.12.01-.12.14-.24.28-.36.41-.05-.11-.1-.18-.19-.21Zm45.65,16.82c.11.06.29.16.62.34.44.24,1.18.62,1.83.93.65.31,1.19.54,1.19.54,0,0,.45.2,1.03.44.58.24,1.3.52,1.83.69.55.18.9.25,1.09.28.38.07.69.07.97.02.28-.05.55-.13.83-.28-.32,0-.57-.03-.83-.07-.26-.04-.53-.08-.88-.14-.17-.03-.5-.1-1.02-.27-.51-.16-1.22-.44-1.79-.68-.58-.24-1.02-.43-1.02-.43,0,0-.54-.23-1.17-.54-.64-.3-1.38-.68-1.81-.92-.27-.15-.44-.24-.55-.3.07-.09.13-.17.2-.26.42.26.89.51,1.48.78.23.1.6.26,1.38.6.37.16,1,.43,1.54.64.54.22,1,.39,1,.39,0,0,.38.15.89.31.51.16,1.15.31,1.63.36.6.07,1.11.04,1.49-.02.39-.06.66-.12.85-.18.76-.21,1.29-.51,1.76-.82.47-.32.86-.67,1.32-1.11,0,0,0,0,0,0,0,0,0,0,0,0h0s0,0,0,0c.36-.23.73-.48,1.16-.82,2.08-1.66,12.51-10,12.51-10,0,0,2.37-1.89,5.07-4.05-3.61,3.02-7.57,6.33-7.57,6.33,0,0-.82.69-2.09,1.75-1.27,1.07-3.01,2.48-4.82,3.98-.91.74-1.83,1.52-2.74,2.24-.91.72-1.82,1.38-2.7,1.92-.22.13-.44.26-.65.37-.11.06-.21.12-.32.17-.1.05-.19.09-.28.14-.1.05-.19.08-.27.12-.17.08-.3.13-.39.16-.67.26-1.03.45-1.61.72.63.03,1.08-.01,1.78-.28.1-.03.24-.09.41-.17.09-.04.18-.08.28-.13.1-.05.19-.09.29-.14.11-.05.22-.11.33-.17.22-.12.45-.25.67-.38.9-.55,1.83-1.22,2.75-1.95.92-.73,1.84-1.5,2.75-2.25,1.81-1.5,3.56-2.92,4.82-3.98,1.27-1.06,2.09-1.75,2.09-1.75,0,0,10.82-9.05,12.98-10.85.27-.23.48-.43.66-.63.02.14.03.28.05.44,0,.01,0,.03,0,.05-.24.15-.47.33-.76.57-.15.13-.45.39-.82.71-.8.69-1.67,1.44-2.57,2.22-.91.77-1.85,1.57-2.77,2.34-1.84,1.55-3.62,3-4.94,4.06-1.32,1.07-2.17,1.75-2.17,1.75,0,0-3.4,2.75-7.17,5.75-.94.75-1.9,1.52-2.84,2.26-.94.74-1.86,1.44-2.76,1.96-.23.13-.45.25-.67.36-.11.06-.22.1-.33.15-.05.02-.11.05-.16.07l-.13.05c-.1.04-.19.07-.27.1-.17.05-.31.1-.4.13-.67.18-1.05.31-1.65.45-.57-.21-.94-.37-1.62-.56-.17-.05-.5-.15-1.02-.34-.91-.33-2.5-1.1-2.5-1.1,0,0-1.9-.91-2.71-1.3-.38-.18-.56-.27-.68-.32-.11-.05-.2-.09-.3-.13.08-.11.17-.22.25-.33Zm28.56-9.47c-2.08,1.73-3.67,3.05-3.67,3.05,0,0-.82.68-2.08,1.73-1.27,1.05-2.97,2.49-4.8,3.93-.92.72-1.87,1.43-2.82,2.09-.35.24-.69.47-1.03.69.36-.27.72-.55,1.09-.83.94-.75,1.9-1.51,2.84-2.26,3.77-2.99,7.18-5.75,7.18-5.75,0,0,.85-.69,2.17-1.75.34-.27.72-.58,1.12-.9Zm-30.34,11.89s.06.04.09.06c.1.07.28.18.64.4.54.33,1.47.86,2.28,1.28.81.42,1.49.73,1.49.73,0,0,.57.27,1.31.58.74.32,1.65.67,2.32.9.55.18.91.25,1.1.28.38.06.7.04.99-.03.28-.08.54-.21.77-.43-.31.08-.56.09-.81.08-.26,0-.52-.03-.87-.09-.17-.03-.5-.09-1.02-.27-.64-.22-1.55-.57-2.28-.89-.73-.31-1.29-.58-1.29-.58,0,0-.68-.31-1.47-.73-.8-.41-1.72-.94-2.26-1.26-.36-.22-.53-.32-.63-.39-.02-.01-.04-.02-.07-.04.03-.04.07-.09.1-.13.05.03.09.05.15.08.11.06.3.15.68.32,1.06.48,3.58,1.62,3.58,1.62,0,0,.53.24,1.2.55.67.3,1.49.69,2.12.9.55.19.91.25,1.1.27.76.1,1.25-.04,1.78-.39-.63.06-1.01.01-1.7-.08-.17-.03-.5-.08-1.02-.26-.59-.19-1.4-.57-2.08-.88-.67-.3-1.2-.54-1.2-.54,0,0-2.52-1.14-3.58-1.63-.38-.18-.56-.26-.67-.31-.03-.01-.05-.02-.08-.04.08-.12.17-.23.26-.35.06.03.11.06.17.09.11.05.3.14.68.32.92.43,3.1,1.46,3.1,1.46,0,0,1.82.86,2.84,1.34.5.24.85.39,1.03.44.38.12.72.13,1.01.04.29-.08.56-.25.72-.53-.27.16-.52.18-.77.18-.25,0-.49-.05-.82-.15-.16-.05-.46-.17-.97-.42-1.01-.48-2.84-1.34-2.84-1.34,0,0-2.18-1.03-3.1-1.46-.38-.18-.57-.27-.68-.32-.03-.02-.06-.02-.09-.04.02-.03.04-.05.06-.08.11.06.23.13.37.19.11.05.3.14.67.33.8.39,2.71,1.3,2.71,1.3,0,0,1.59.78,2.53,1.12.53.2.88.3,1.05.35.72.19,1.16.2,1.78.12.52.13.96.16,1.55.03-.47.2-.81.38-1.27.63.63,0,1.07-.05,1.77-.32.09-.04.24-.09.41-.16.09-.04.18-.08.28-.12.1-.04.19-.09.29-.13.11-.05.22-.1.33-.16.22-.11.45-.23.68-.35.46-.25.94-.53,1.4-.84.47-.3.95-.62,1.43-.96.96-.67,1.92-1.39,2.84-2.11,1.84-1.45,3.54-2.89,4.81-3.94,1.26-1.05,2.08-1.73,2.08-1.73,0,0,10.77-8.97,12.93-10.76.42-.35.68-.63.94-.96,0,.09,0,.19,0,.28,0,.08-.02.17-.04.24-.01.04-.02.06-.05.1-.02.04-.06.09-.1.15,0,0-.01.02-.02.03-.11.08-.23.16-.35.27-.15.13-.46.38-.84.69-1.63,1.35-3.55,2.95-5.39,4.48-3.74,3-7.15,5.73-7.15,5.73,0,0-.85.68-2.17,1.75-1.31,1.06-3.09,2.51-4.93,4.05-1.86,1.52-3.69,3.25-5.49,4.33-.23.13-.44.26-.66.38-.11.06-.22.12-.33.17-.1.05-.19.09-.29.14-.1.05-.19.08-.27.11-.17.07-.3.12-.39.15-.34.12-.6.21-.85.3-.13.04-.25.09-.38.14-.13.04-.27.09-.42.14.62.11,1.08.11,1.8-.13.1-.03.24-.08.42-.16.09-.04.19-.07.29-.12.1-.05.2-.09.3-.14.12-.05.23-.11.34-.17.23-.12.46-.25.69-.39.92-.57,1.86-1.28,2.77-2.04.91-.77,1.85-1.56,2.77-2.33,1.84-1.54,3.61-2.98,4.93-4.05,1.32-1.06,2.16-1.75,2.16-1.75,0,0,.85-.68,2.17-1.74,1.32-1.06,3.12-2.47,4.98-3.99.54-.44,1.08-.9,1.62-1.34-.84.72-1.69,1.46-2.53,2.18-3.52,3.01-6.76,5.69-6.76,5.69,0,0-3.24,2.69-6.85,5.58-.9.72-1.83,1.46-2.73,2.18-.91.71-1.76,1.44-2.62,1.93-.22.12-.44.24-.65.35-.11.05-.21.11-.32.16-.09.05-.19.09-.28.13-.1.04-.19.09-.27.12-.17.07-.3.13-.39.16-.33.13-.59.24-.84.34-.25.1-.48.21-.79.29.31.07.59.08.87.05.28-.03.58-.1.93-.23.1-.04.24-.09.41-.17.09-.04.18-.08.28-.13.09-.05.19-.09.29-.14.11-.05.22-.11.33-.16.22-.11.44-.23.67-.36.92-.53,1.78-1.26,2.68-1.97.9-.72,1.83-1.46,2.73-2.18,3.61-2.9,6.85-5.59,6.85-5.59,0,0,3.25-2.68,6.77-5.7.88-.76,1.78-1.53,2.65-2.28.86-.75,1.7-1.48,2.46-2.15.37-.32.66-.59.81-.72.28-.25.49-.47.67-.69,0,.22-.02.49-.04.68-.03.17-.07.32-.1.46-.16.11-.33.23-.53.38-2.15,1.73-12.91,10.41-12.91,10.41,0,0-3.26,2.62-6.84,5.51-.9.72-1.81,1.46-2.7,2.18-.88.71-1.78,1.36-2.63,1.89-.21.13-.43.26-.63.37-.1.06-.21.11-.31.17l-.15.08-.08.04-.04.02c-.1.05-.19.09-.27.13-.16.08-.3.13-.39.17-.55.23-.9.4-1.33.6.09-.07.19-.14.27-.23-.3.11-.55.13-.8.14-.26,0-.52-.01-.86-.06-.17-.02-.5-.08-1.02-.24-.72-.24-1.74-.63-2.56-.97-.82-.34-1.45-.63-1.45-.63,0,0-.76-.34-1.66-.79-.9-.45-1.94-1.02-2.54-1.38-.36-.21-.53-.32-.64-.38-.09-.06-.17-.1-.26-.14.05-.06.09-.13.14-.19Zm-.84,1.14c.08.05.15.11.24.16.11.07.28.18.64.39.63.38,1.71,1,2.65,1.48.29.15.55.28.8.4-.27-.12-.57-.27-.9-.42-.99-.47-2.13-1.07-2.8-1.45-.37-.2-.54-.31-.65-.37-.04-.02-.06-.03-.1-.05.04-.05.08-.1.11-.15Zm-1.04,1.36c.11.08.23.16.36.25.11.07.28.17.64.4.29.18.69.42,1.11.67-.48-.25-.92-.48-1.26-.65-.38-.19-.56-.28-.67-.34-.12-.06-.22-.1-.32-.15.05-.06.09-.12.14-.18Zm40.89-16.77c-.16.12-.48.38-.84.72-.36.35-.74.71-1.13,1.08-.39.37-.81.72-1.27,1.06-.91.67-1.89,1.33-2.81,2.03-1.85,1.38-3.55,2.76-4.8,3.8-1.24,1.04-2.04,1.71-2.04,1.71,0,0-.8.67-2.03,1.72-1.24,1.04-2.91,2.46-4.7,3.89-1.79,1.42-3.75,2.81-5.5,3.81-.22.13-.43.25-.64.35-.11.05-.21.1-.31.15-.09.04-.19.08-.28.12-.1.04-.19.08-.27.11-.17.07-.3.11-.4.14-.34.11-.6.19-.85.25-.25.06-.49.12-.81.06.25.2.55.27.84.29.29.02.6-.03.96-.14.1-.03.25-.08.42-.15.09-.03.19-.07.29-.12.1-.04.19-.09.29-.13.11-.05.22-.1.33-.16.22-.11.45-.24.66-.36,1.78-1.01,3.76-2.42,5.56-3.85,1.81-1.43,3.48-2.86,4.71-3.9,1.24-1.05,2.03-1.72,2.03-1.72,0,0,.8-.67,2.04-1.71,1.25-1.03,2.94-2.41,4.78-3.78.18-.14.37-.27.56-.41-3.63,3.12-7.71,6.63-7.71,6.63,0,0-.82.7-2.1,1.76-1.28,1.06-3.04,2.47-4.94,3.86-1.9,1.39-3.96,2.75-5.77,3.78-.23.13-.45.25-.66.38-.11.06-.22.12-.32.17-.09.05-.19.1-.28.15-.1.05-.18.09-.27.13-.16.08-.3.13-.39.17-.33.13-.58.24-.83.34-.25.1-.49.19-.79.27.62.14,1.1.11,1.81-.16.09-.04.24-.1.41-.18.09-.04.18-.09.28-.14.09-.05.19-.1.29-.15.11-.06.22-.12.33-.18.22-.12.44-.25.67-.38.49-.28,1-.58,1.52-.9-.15.12-.31.23-.47.35-.4.29-.81.59-1.2.89-.4.29-.78.56-1.15.77-.18.1-.37.2-.53.27-.09.04-.18.08-.27.11-.17.06-.3.11-.4.13-.68.19-1.08.33-1.66.58.63.05,1.06.08,1.8-.12.1-.03.25-.07.43-.14.09-.03.19-.07.29-.12.17-.08.38-.18.57-.29.39-.23.8-.51,1.19-.8.4-.29.81-.6,1.21-.89,1.6-1.19,3.02-2.3,3.02-2.3,0,0,.85-.66,1.93-1.51,1.08-.85,2.38-1.9,3.31-2.65.44-.35.71-.57.85-.69.34-.28.58-.51.79-.76,1.02-.85,1.64-1.38,1.64-1.38,0,0,10.75-9.24,12.9-11.09.17-.15.31-.28.43-.41.01.06,0,.13.03.19.04.11.1.19.16.26,0,.01.02.02.03.03-.37.19-.68.39-1.1.73-.15.13-.46.38-.84.69-.79.67-1.66,1.4-2.55,2.15-.89.77-1.81,1.55-2.7,2.32-1.79,1.54-3.5,3.01-4.76,4.09-1.27,1.07-2.09,1.76-2.09,1.76,0,0-.83.68-2.11,1.74-1.29,1.05-3.04,2.47-4.88,3.96-1.84,1.49-3.77,3.02-5.44,4.27-.21.15-.42.32-.61.45-.09.07-.19.13-.29.19-.05.03-.1.06-.15.08l-.12.06c-.09.04-.18.08-.26.11-.16.07-.3.11-.39.14-.34.1-.6.17-.86.24-.18.05-.37.1-.57.14.1-.08.19-.16.26-.27-.28.15-.53.17-.77.17-.25,0-.5-.04-.83-.13-.16-.04-.48-.14-.97-.38-.82-.44-1.97-1.11-2.92-1.64-.95-.53-1.69-.95-1.69-.95,0,0-.89-.5-1.96-1.11-1.07-.61-2.33-1.33-3.07-1.76-.37-.21-.54-.31-.65-.37-.02-.01-.04-.02-.07-.04.05-.06.1-.13.15-.19.12.07.25.14.4.21.11.06.29.15.67.34.72.36,1.92.99,2.92,1.56,1.01.56,1.82,1.06,1.82,1.06,0,0,.68.41,1.55.95.43.27.9.58,1.38.87.48.28.97.53,1.4.69.55.21.91.26,1.1.29.38.05.69.04.98-.02.28-.06.54-.17.81-.34-.32.03-.57,0-.83,0-.26-.02-.53-.05-.88-.1-.17-.03-.5-.08-1-.27-.4-.15-.86-.38-1.33-.66-.47-.27-.94-.59-1.37-.86-.87-.55-1.56-.96-1.56-.96,0,0-.19-.11-.49-.29.23.12.38.2.38.2,0,0,.68.36,1.55.79.87.43,1.95.94,2.72,1.28.52.24.88.35,1.08.38.4.08.75.03,1.02-.11.27-.13.5-.36.59-.67-.23.22-.47.29-.71.33-.24.04-.49.04-.82-.03-.16-.03-.47-.12-.98-.35-.77-.34-1.84-.84-2.71-1.27-.87-.43-1.54-.78-1.54-.78,0,0-.8-.42-1.76-.95-.39-.22-.8-.45-1.2-.68.34.18.68.35,1.01.52.96.48,1.75.86,1.75.86,0,0,.67.31,1.52.72.86.39,1.9.87,2.64,1.21.51.23.84.37,1.02.44.36.13.67.19.96.19.29,0,.58-.07.85-.22-.32,0-.56-.05-.81-.12-.25-.07-.5-.16-.83-.29-.16-.06-.47-.19-.99-.43-.74-.34-1.78-.81-2.64-1.2-.85-.4-1.52-.71-1.52-.71,0,0-.79-.38-1.74-.85-.95-.48-2.05-1.06-2.7-1.43-.37-.21-.54-.31-.65-.37-.06-.03-.1-.06-.16-.08.05-.06.09-.12.13-.18.05.03.09.06.14.09.11.06.28.17.65.37.67.38,1.82.98,2.82,1.46,1,.48,1.83.85,1.83.85,0,0,.7.32,1.59.7.45.19.94.4,1.42.61.48.2.94.41,1.35.56.54.2.9.28,1.09.31.38.06.71.04.99-.04.28-.09.53-.25.74-.49-.3.12-.55.14-.8.14-.25,0-.52-.02-.86-.08-.17-.03-.49-.09-1.01-.29-.34-.13-.75-.31-1.18-.49.38.14.74.28,1.05.39.55.19.91.25,1.1.28.39.05.71.02,1-.09.28-.11.52-.29.69-.56-.28.16-.52.2-.77.22-.25.02-.51,0-.85-.05-.17-.02-.49-.08-1.01-.26-.75-.27-1.8-.68-2.65-1.04-.85-.36-1.5-.67-1.5-.67,0,0-.78-.37-1.71-.85-.93-.48-2-1.09-2.62-1.47-.36-.21-.53-.33-.64-.39-.08-.05-.14-.08-.21-.12.05-.07.1-.14.15-.21.09.06.17.12.28.18.11.07.28.17.65.39.61.36,1.66.94,2.57,1.39.91.46,1.68.8,1.68.8,0,0,.64.3,1.47.64.83.35,1.84.73,2.59.98.55.18.91.23,1.1.26.39.05.71.02.99-.07.1-.03.19-.08.27-.13.59.04,1.05,0,1.71-.28.09-.04.24-.1.41-.18.09-.04.18-.09.28-.13l.05-.02.08-.04.16-.08c.11-.06.21-.11.32-.17.22-.12.43-.25.65-.38.88-.54,1.79-1.2,2.68-1.93.89-.72,1.81-1.45,2.7-2.18,3.58-2.89,6.84-5.51,6.84-5.51,0,0,10.62-8.56,12.86-10.37-.05.12-.11.23-.16.32-.04.06-.07.14-.1.21-.23.17-.47.36-.75.62-.15.13-.44.4-.8.72-.18.16-.36.32-.55.48-.2.17-.4.34-.6.51-.41.34-.83.69-1.27,1.04-.87.7-1.78,1.4-2.67,2.08-1.78,1.38-3.44,2.74-4.67,3.73-1.23,1-2.02,1.64-2.02,1.64,0,0-3.17,2.57-6.67,5.4-.44.35-.88.71-1.32,1.06-.22.18-.44.35-.67.52-.23.17-.45.35-.67.53-.43.35-.85.7-1.28,1.02-.42.32-.85.57-1.28.83-.21.13-.42.25-.62.37-.1.06-.2.11-.3.17l-.15.08-.12.06c-.09.05-.18.09-.26.13-.16.08-.3.13-.38.17-.33.13-.58.23-.83.3-.25.07-.49.15-.81.13.27.17.56.22.86.22.29,0,.6-.06.96-.21.1-.04.24-.1.41-.18.09-.04.18-.09.28-.14l.12-.06.15-.08c.1-.06.21-.12.31-.17.21-.12.42-.25.63-.38.42-.25.89-.53,1.32-.86.44-.32.86-.68,1.29-1.03.22-.18.43-.35.65-.52.22-.17.46-.35.67-.53.44-.36.89-.71,1.32-1.06,3.49-2.83,6.67-5.4,6.67-5.4,0,0,.79-.64,2.03-1.64,1.23-.99,2.9-2.35,4.67-3.72.89-.69,1.8-1.39,2.67-2.09.44-.35.86-.7,1.28-1.05.2-.17.41-.35.6-.51.19-.17.37-.33.56-.49.37-.32.66-.6.81-.74.11-.11.21-.2.3-.3,0,0,0,0,0,0,.04.18.1.29.15.37,0,0,0,.01.01.02-.22.1-.44.22-.69.41Z"/>
      </g>
      <path class="cls-2" d="m125.48,141.11c1.22,1.09,3.21,1.39,3.84,2.9.43,1.04-.03,2.27-.77,3.12-.74.85-7.65,9.4-10.43,12.86-1.78,2.21-9.85,12.46-12.3,15.26-1.01,1.15-5.97,7.28-7.36,9.26-4.28,6.11-9.66,11.63-13.74,17.62l.15-1c-.43,1.59-2.28,2.44-3.92,2.31s-3.11-1.01-4.52-1.86c-9.5-5.71-19.15-11.15-28.95-16.32-1.2-.63-2.44-1.29-3.26-2.37s-.86-2.44-.04-3.52l.86-1.22c4.41-5.01,7.52-8.54,11.93-13.55,3.47-3.94,6.94-7.88,10.41-11.82,6.79-7.71,13.58-15.42,20.36-23.13.7-.79,1.44-1.61,2.44-1.95,2.15-.72,4.33,1.1,6.59,1.15l28.7,12.25Z"/>
      <path class="cls-5" d="m98.81,141l-1.27-.32c.02-.21-.09-.42-.35-.47-1.09-.21-2.18-.69-3.26-1.2-1.13-1.68-3.18-2.21-5.09-1.91-.12-.08-.25-.15-.4-.19-.43-.12-.89,0-1.19.34-.12.13-.2.28-.27.44-.06.03-.13.05-.19.08-1.48.79-2.66,2.03-3.69,3.33-1.2,1.51-2.32,3.08-3.48,4.62-.35.46-.69.93-1.04,1.39-.22.27-.45.54-.67.81-1.75,2.13-3.51,4.26-5.26,6.39,0,0,0,.02-.01.03-.01,0-.03,0-.04,0-.53.14-.44,1.05.13.98.05,0,.09-.02.13-.03,0,0,0,0,0,0,2.37-.61,4.73.35,7.12.3.53-.01,1.06-.07,1.57-.19.29.08.59.16.88.25.32.09.54-.12.6-.37.18,0,.36-.02.53-.06,1.61-.43,1.73-2.4,2.04-3.74.16-.69.36-1.36.57-2.03.85-1.19,1.7-2.38,2.54-3.56,2.19-1.04,4.38-2.08,6.56-3.12.34-.16.3-.62.05-.83.4-.16.8-.32,1.2-.46.67.16,1.34.33,2.01.49.62.15.89-.81.27-.96Zm-8.25-.89c.19.18.38.37.57.55-.38,0-.77.02-1.15.05-.09-.06-.17-.1-.26-.15.14-.29.46-.42.84-.45Zm-7.82,3.78c-.04.07-.05.13-.06.2-.06-.06-.13-.12-.22-.15.78-.97,1.55-1.99,2.38-2.93,0,.06-.01.12-.02.19-.84.76-1.56,1.67-2.09,2.7Zm6.73-.92s.01-.02.02-.03l1.1-1.23s.01-.03.02-.04c.17,0,.35-.02.52-.02-.55.44-1.1.88-1.66,1.32Zm3.43-1.92c-.09-.16-.27-.3-.45-.32-.03,0-.05,0-.08,0,.01-.1,0-.19-.06-.29.47.11.94.23,1.41.34-.27.09-.55.17-.82.27Z"/>
      <path class="cls-5" d="m115.37,149.11c-1.15-.76-2.62-1.15-3.9-1.65-.04-.02-.09-.03-.13-.05-.55-.32-1.14-.59-1.76-.79-.24-.08-.49-.15-.75-.2-.6-.24-1.2-.47-1.8-.71-.15-.42-.83-.38-.94.06-.25,1.05-.15,2.13.27,3.09,0,.09-.01.19-.02.28-.47,4.78-4.45,8.16-7.88,11.05-.22.19-.16.51,0,.71.14.17.28.35.42.52-.04.11-.07.22-.04.33.49,2.36,1.65,4.51,3.34,6.22.25.25.6.15.79-.1.1-.14.2-.28.3-.42-.26.55.53.99.87.47,1.08-1.62,2.09-3.29,3.07-4.97.65-.72,1.29-1.44,1.94-2.15,1.92-2.14,3.85-4.27,5.77-6.42.72-.8,1.5-1.7,1.67-2.8.16-1.03-.37-1.9-1.21-2.46Zm-6.31,4.56c-.27.2-.55.39-.82.59.12-.25.24-.5.38-.75.1-.09.2-.18.3-.28.06-.01.11-.03.16-.05.02.1.07.19.14.26-.06.08-.11.15-.17.23Zm-7.33,5.63c-.27.44-.53.89-.78,1.34-.22-.08-.37-.2-.39-.39-.03-.48.66-.76,1.17-.95Zm3.68-1.48c-.97.98-1.95,1.95-2.92,2.93-.04,0-.09,0-.14,0,.99-1.02,2-2,3.06-2.94Zm-4.31,6.84c-.02.05-.03.1-.04.16-.3-.54-.58-1.1-.79-1.68.16.19.32.39.47.58.11.29.25.56.42.82-.02.04-.04.08-.06.12Zm1.4,2.14c-.39-.44-.74-.9-1.06-1.38.11.04.22.03.33-.05.13.16.26.31.4.47-.13.3.03.66.43.7.03,0,.06,0,.1,0-.07.09-.13.18-.2.27Zm.76-1.91c-.03-.23-.09-.45-.15-.66.38-.31.76-.63,1.14-.94,0,0,0,0,0,.01.12.22.16.45.15.67-.37.32-.76.62-1.14.93Zm12.17-12.88c0-.08.03-.15.02-.23-.01-.28-.12-.54-.27-.76.07-.13.15-.26.22-.39.02-.03.02-.06.03-.09.09.16.17.33.19.53.03.33-.05.64-.18.94Z"/>
      <path class="cls-7" d="m45.05,178.17c1.04-.72,1.72-1.24,2.7-2.34,3.83-4.35,23.01-26.14,23.01-26.14,0,0,5.44-6.18,11.42-12.97,1.5-1.7,3.03-3.44,4.51-5.13.37-.42.74-.84,1.11-1.26.37-.42.72-.83,1.08-1.18.36-.36.74-.66,1.15-.85.1-.05.2-.09.31-.12.11-.03.21-.06.32-.08.11-.02.22-.03.32-.05.05-.01.11,0,.16,0h.12c.43,0,.83.07,1.17.16.34.09.61.18.8.24.68.23,1.25.39,1.81.48.56.08,1.13.09,1.75-.04-.61-.17-1.06-.4-1.55-.63-.49-.23-1-.47-1.71-.71-.19-.07-.49-.16-.87-.26-.38-.1-.86-.19-1.4-.19h-.15c-.07,0-.14,0-.21.01-.14.02-.29.03-.43.06-.14.04-.29.07-.43.11-.14.05-.28.11-.42.17-.54.26-1,.64-1.4,1.03-.41.4-.76.82-1.13,1.24-.37.41-.73.83-1.11,1.26-1.49,1.69-3.02,3.43-4.51,5.13-5.98,6.8-11.42,12.98-11.42,12.98,0,0-19.18,21.79-23.01,26.14-.97,1.11-1.39,1.85-1.98,2.97Z"/>
      <path class="cls-7" d="m94.65,128.45c1.03.74,1.74,1.21,3.1,1.77.23.09.61.25,1.39.57,1.78.73,4.78,1.96,7.34,3.01,2.55,1.06,4.65,1.94,4.65,1.94,0,0,1.76.74,4,1.69,2.24.96,4.97,2.13,6.91,2.96,1.03.45,1.67.72,2.01.87,1.35.58,2.18.76,3.43.97-1-.77-1.7-1.26-3.05-1.85-.33-.15-.97-.42-2.01-.87-1.94-.84-4.67-2.01-6.92-2.96-2.25-.95-4.01-1.69-4.01-1.69,0,0-2.11-.88-4.66-1.95-2.55-1.06-5.56-2.29-7.34-3.01-.78-.32-1.16-.47-1.39-.56-1.37-.55-2.2-.7-3.46-.88Z"/>
      <path class="cls-7" d="m84.72,202.14c.95-.84,1.56-1.42,2.45-2.58.12-.16.3-.4.53-.69.11-.15.24-.31.37-.48.28-.35.57-.72.87-1.1.32-.39.64-.8.98-1.21,2.68-3.31,5.99-7.12,8.79-11.08.68-.97,1.41-1.91,2.13-2.82.71-.91,1.42-1.8,2.1-2.64,1.36-1.69,2.61-3.24,3.72-4.52,1.1-1.3,1.98-2.39,2.59-3.14.61-.76.95-1.18.95-1.18,0,0,1.37-1.71,3.49-4.36,1.06-1.33,2.3-2.89,3.65-4.59,1.35-1.7,2.84-3.52,4.35-5.39,1.51-1.87,3.06-3.78,4.57-5.63.75-.93,1.49-1.84,2.22-2.73.18-.23.37-.45.55-.68.2-.24.37-.51.51-.78.14-.28.26-.57.33-.87.04-.15.07-.31.08-.47,0-.08.02-.16.02-.24v-.12s0-.04,0-.04h0c0-.31-.06-.59-.15-.84-.04-.13-.1-.24-.15-.35-.05-.11-.12-.21-.18-.3-.26-.36-.52-.59-.7-.73-.66-.5-1.22-.69-1.73-.88-.52-.18-1-.31-1.57-.59.37.52.8.89,1.24,1.22.45.33.95.61,1.46,1.01.14.11.33.28.5.52.17.25.31.57.32.96,0,0,0,.06,0,.12,0,.05,0,.11-.01.16-.01.11-.03.22-.06.33-.06.22-.14.45-.25.66-.11.22-.25.43-.41.62-.17.21-.35.43-.53.65-.72.89-1.47,1.81-2.22,2.74-1.51,1.86-3.06,3.78-4.58,5.65-1.51,1.88-3.01,3.69-4.36,5.4-1.35,1.7-2.6,3.27-3.65,4.59-2.12,2.65-3.49,4.36-3.49,4.36,0,0-.34.43-.95,1.18-.61.75-1.49,1.84-2.58,3.13-1.12,1.28-2.38,2.84-3.74,4.54-.68.85-1.39,1.74-2.11,2.65-.71.92-1.45,1.86-2.15,2.86-2.76,3.91-6.06,7.7-8.75,11.03-.34.42-.66.82-.98,1.22-.16.2-.31.4-.47.59-.14.17-.27.35-.4.52-.13.17-.26.33-.37.48-.23.29-.41.54-.53.7-.89,1.18-1.24,1.97-1.69,3.16Z"/>
      <path class="cls-7" d="m44.18,179.39c-.49.4-.82.91-.94,1.52-.12.61-.02,1.33.43,2.05.13.19.33.46.61.75.14.15.3.29.48.44l.15.12c.06.05.12.1.18.14.12.09.25.18.38.27.26.18.54.34.82.5.57.32,1.15.62,1.75.94.6.32,1.22.65,1.84.98,1.25.67,2.53,1.36,3.78,2.04,5.01,2.72,9.51,5.28,9.51,5.28,0,0,4.51,2.55,9.41,5.45,1.22.73,2.47,1.48,3.69,2.2.61.37,1.22.73,1.86,1.04.32.15.64.29.97.41.16.06.33.11.49.16.08.02.17.05.25.07.04.01.08.02.12.03l.1.02c.51.11,1,.16,1.41.14.41-.02.74-.08.95-.13.4-.1.74-.24,1.03-.41.29-.17.54-.37.74-.6.41-.45.65-1.02.67-1.65-.32.55-.71.86-1.13,1.12-.21.13-.43.24-.69.34-.25.11-.53.2-.85.27-.17.04-.44.09-.77.1-.33.01-.73-.02-1.17-.12l-.08-.02s-.07-.02-.11-.03l-.22-.06c-.14-.04-.29-.09-.43-.15-.29-.11-.58-.23-.88-.38-.59-.29-1.18-.63-1.78-1-1.22-.73-2.47-1.47-3.7-2.2-4.91-2.91-9.43-5.46-9.43-5.46,0,0-4.51-2.57-9.52-5.29-1.26-.68-2.54-1.37-3.79-2.04-.63-.33-1.24-.66-1.84-.98-.6-.32-1.19-.62-1.72-.92-.27-.15-.52-.3-.76-.46-.12-.08-.23-.16-.34-.24-.06-.04-.11-.08-.16-.12l-.13-.1c-.15-.13-.29-.26-.41-.38-.24-.24-.4-.46-.49-.6-.34-.53-.48-1-.53-1.48-.04-.48,0-.98.24-1.57Z"/>
      <g>
        <path class="cls-7" d="m105.7,150.2c.4-.61.36-1.22-.11-1.9-.04-.06-.06-.17-.05-.24.12-.75.04-1.51-.25-2.32-.35-.99-1.09-1.7-2.33-2.25-2.36-1.04-4.82-1.3-7.31-.77-2.19.47-3.87,1.41-5.14,2.89-.08.09-.19.18-.32.26-.61.36-1.08.88-1.41,1.55-.11.21-.21.29-.42.33-.21.04-.38.24-.54.42-.1.11-.17.23-.25.35-.07.1-.13.2-.21.29-.81,1-1.71,2.37-1.57,4.19,0,.02-.02.06-.03.09-.01.03-.03.06-.04.09-.06.18-.13.36-.2.54-.15.4-.3.82-.43,1.23-.02.08-.05.15-.08.23-.14.41-.29.84-.12,1.31.11.32-.05.53-.25.79l-.02.02c-.76-.33-1.52-.28-2.23-.2-1.26.15-2.35.1-3.34-.15-1.2-.3-2.42-.32-3.73-.06l-.14.03c-.71.14-1.38.27-2.07.09-.08-.02-.16,0-.22.03-.02,0-.04.01-.06.02-.05.01-.09.05-.1.09s0,.1.03.13c.14.16.29.23.46.24h.34c.49-.02,1-.04,1.5-.1.18-.02.36-.05.54-.07.88-.12,1.72-.24,2.59-.03.73.18,1.45.28,2.13.3.5.01,1.02-.01,1.51-.04.4-.02.82-.05,1.22-.05h.01c.32,0,.64.05.98.11.1.02.19.03.29.05-.1.16-.2.31-.3.46-.3.46-.59.9-.82,1.36-.25.48-.32,1.03-.35,1.4,0,.16,0,.45.19.63.05.05.1.08.17.11-.02.01-.03.02-.05.03-.21.16-.43.32-.65.45-.18.11-.38.21-.57.31-.23.12-.47.24-.69.38-.31.2-.61.43-.9.66-.1.08-.21.16-.32.24-.07.05-.13.11-.19.17l-.09.08c-.05.05-.06.12-.02.18l.07.11c.04.06.11.07.17.05.03-.01.06-.03.09-.04.08-.03.16-.07.24-.12.17-.13.35-.26.52-.39.26-.2.52-.39.78-.58.28-.19.58-.38.91-.55.26-.14.57-.26.92-.39.07-.03.19-.02.28,0,.2.07.4.15.59.23.35.15.72.29,1.1.38l.43.1c.89.22,1.82.44,2.74.48,1.72.08,3.35-.05,4.85-.38l.1-.02c1.29-.28,2.62-.57,3.27-1.98.35.24.57.6.7,1.16.17.72.48,1.64,1.32,2.3.35.28.67.59.95.94.36.45.71.92,1.05,1.37.19.26.39.52.59.78.06.08.14.13.21.18.03.02.06.04.08.06.03.02.06.03.09.03.03,0,.07-.01.09-.04l.08-.08s.06-.1.04-.15c-.01-.03-.02-.06-.03-.08-.03-.08-.05-.15-.1-.22-.07-.1-.13-.2-.2-.31-.18-.29-.37-.58-.6-.84-.31-.35-.64-.7-.96-1.03-.34-.36-.69-.73-1.02-1.1-.35-.4-.63-.82-.85-1.25-.12-.24-.21-.5-.29-.76-.1-.29-.2-.58-.34-.86-.12-.23-.33-.41-.55-.59-.05-.04-.1-.09-.16-.13l.22-.15c1.09-.72,2.22-1.53,2.93-2.77.03-.06.11-.12.18-.15.95-.43,1.77-1.11,2.49-2.08.09-.12.21-.22.33-.33.05-.05.11-.09.16-.14.06-.05.12-.1.18-.15.14-.11.28-.23.39-.38.1-.14.15-.31.2-.47.02-.07.04-.13.06-.19.01-.04.01-.08,0-.11l.05-.04c.17-.12.33-.24.51-.36.89-.59,1.25-1.46,1.05-2.5-.04-.19-.03-.35.02-.42Zm-21.78,11.55v-.03c.1-.1.21-.2.32-.29.32-.29.65-.58,1-.84.15-.11.33-.18.7.08.89.63,1.75.99,2.61,1.09,1.81.22,3.47.15,5.06-.21.63-.14,1.24-.35,1.84-.55.28-.09.55-.19.83-.27,0,0,.02,0,.02,0,.04.3-.13.52-.35.75-.53.57-1.27.8-2.04.99-1.4.36-2.93.52-4.8.49-.79-.01-1.59-.17-2.37-.33-.24-.05-.48-.1-.72-.14-.37-.07-.74-.2-1.09-.32l-.17-.06c-.21-.07-.42-.17-.62-.25-.08-.03-.15-.07-.23-.1Zm.55-3.26l.15-.23s.05.09.08.14c.13.23.26.46.38.68.11.22.21.45.31.7.03.07.06.13.08.2-.72.16-1.17.63-1.59,1.09-.1.1-.19.21-.28.3-.31-.58-.22-1.17.27-1.95.2-.31.4-.63.6-.93Zm5.75,2.91h-.06c-1.75,0-2.97-.38-3.94-1.23-.12-.1-.19-.28-.27-.46l-.02-.05c-.09-.22-.21-.51-.28-.8-.05-.23-.07-.47-.09-.7v-.13c-.02-.14-.02-.27-.03-.41,0-.28,0-.57-.08-.84-.14-.54-.02-1.04.1-1.57l.03-.12c.31-1.31.95-2.52,1.98-3.73,0,.05,0,.1.04.13.03.02.05.03.08.03.04,0,.07-.01.1-.04l.43-.45c.49-.52.99-1.05,1.49-1.58.05-.06.08-.12.1-.19,0-.01,0-.02.01-.04l.51-.33.59.32s-.06.07-.09.11c-.14.18-.28.34-.41.52-.26.38-.35.7-.28.99.07.29.31.53.71.73.16.08.32.15.48.22.15.06.29.13.44.2,1.28.62,2.49.48,3.61-.43.17-.14.44-.23.73-.26.16,0,.27.01.32.08.06.07.05.21,0,.37-.04.11-.09.23-.13.34-.07.19-.15.37-.21.56-.19.57-.06,1.05.37,1.32.73.45,1.51.92,2.36,1.27.49.2,1.05.04,1.6-.45.14-.13.27-.27.39-.41.13-.14.25-.28.38-.4.06-.06.22-.07.34-.07,0,.02.02.03.03.05,0,0,0,0,0,0l-.22.28c-.28.36-.56.72-.85,1.08l-.12.15c-.41.52-.84,1.06-1.23,1.62-.04.06-.03.14.02.18.05.05.14.04.19,0l.64-.66c-.48,1.04-1.25,1.95-2.33,2.75-1.36,1.01-3,1.61-5.32,1.93-.6.09-1.26.13-2.14.13Zm-3.53-9.9s0,.05-.08.18c-.07.12-.15.24-.22.35.01-.04.03-.08.04-.13.06-.22.13-.44.2-.65.01.08.04.16.07.25Zm1.6-1.88c-.38.5-.78.99-1.19,1.46,0-.26.11-.49.38-.75.16-.15.32-.29.49-.43.11-.09.21-.18.32-.28Zm-.14-.56l-.24.2c-.22.18-.44.37-.65.57.11-.16.22-.31.33-.46.11-.15.22-.3.33-.45.04-.05.07-.11.1-.16.07-.11.13-.21.21-.3.04-.04.11-.08.18-.11.1.25.02.46-.27.71Zm13.07,6.57c-.09.13-.19.25-.3.37.21-.5.51-.9.88-1.2-.19.28-.38.56-.57.83Zm-7.63-4.9l.04.06h-.12s.08-.06.08-.06Zm-1.17-.44v.08s-.14-.09-.14-.09h.14Zm-1.7.38c-.04-.19.09-.41.23-.57.33.11.62.22.88.42l-.15-.07c-.06-.03-.12-.01-.16.03-.04.04-.05.11-.02.16.28.51.93.88,1.46.88.12,0,.23-.02.34-.06.05-.02.09-.07.09-.12,0-.04-.03-.06-.05-.09.18,0,.36,0,.55-.05.11-.02.22-.03.36-.05.07,0,.15-.01.24-.03.04,0,.08-.03.11-.07.02-.04.02-.09,0-.13-.02-.05-.04-.1-.06-.15-.04-.11-.09-.22-.17-.31-.12-.14-.26-.26-.4-.36.04.01.08.03.12.04.15.05.3.07.46.09.05,0,.11.01.17.02.06,0,.12.01.18.01.19,0,.28.02.32.13l-.37.04c-.05,0-.1.04-.12.09-.02.05,0,.11.04.15l.29.26c-.26.5-1.13,1.03-1.66.89-.78-.2-1.52-.46-2.21-.77-.25-.11-.39-.25-.42-.4Zm1.83-.93c-.11,0-.22,0-.33.01-.25.02-.51.01-.8,0-.07,0-.13,0-.2,0,.18-.27.26-.34.49-.29.22.05.32-.04.37-.09.03-.04.06-.11.05-.21l.07.05c.18.12.37.25.56.36.16.1.33.18.48.25-.21-.05-.43-.07-.68-.07Zm-3.22-.56c.07-.1.13-.21.2-.35.09-.21.16-.32.21-.33,0,0,0,0,.01,0,.05,0,.15.06.28.18l-.38.33s0,.01,0,.02c0,0-.01,0-.02,0l-.58.53c.1-.13.19-.26.29-.38Zm8.42,2.5s.04,0,.05,0c.19.07.37.15.55.23-.29,0-.55.04-.72.15-.05.03-.07.09-.06.15,0,0,0,0,0,0-.05.01-.11.03-.16.04l-.15.04c-.07.02-.12.09-.1.16l.02.09s.02.06.05.08c0,0,0,0,0,.01.12.17.26.3.39.43-.06-.02-.12,0-.16.04-.04.05-.04.12,0,.17.36.48.72.69,1.24.69.11,0,.22,0,.34-.03.06,0,.11-.06.12-.12s-.03-.12-.08-.14l-.22-.09c.13,0,.27-.01.4-.06.05-.02.09-.07.09-.13,0-.06-.03-.11-.09-.13l-.27-.11c.25-.14.33-.05.73.42.04.05.11.06.17.03l.15.33s.07.08.13.08c0,0,.01,0,.02,0,.06,0,.11-.06.12-.12.06-.52-.04-.94-.31-1.28.22.1.45.19.66.29.05.02.1.08.15.15h-.32s0,0,0,0c-.06,0-.11.04-.13.09l-.03.1c-.02.05,0,.12.04.15l.31.25c-.23.48-.57.81-.98.96-.41.15-.86.1-1.33-.13-.52-.26-1.04-.59-1.55-.99-.12-.09-.22-.38-.19-.55.06-.29.24-.59.42-.86.03-.03.16-.04.23-.05.05,0,.09-.01.13-.02.03,0,.06,0,.09,0,.05,0,.09,0,.14,0,.03,0,.09-.01.12-.05.03-.03.04-.07.03-.11l-.03-.17Zm.06.94h.19s-.02.08-.02.08l-.17-.08Zm4.33,1.38l-.41.23.08-.15.33-.08Zm-13.17-5.45c.02.08,0,.16-.03.21,0,0,0,0,0,0,.02-.08.04-.15.04-.22Zm13.46,6.05c.03-.05.02-.12-.02-.17.21-.09.44-.16.68-.19l-1.08,1.11.42-.75Zm1.74-1.75c-.12.08-.23.16-.34.25-.2.16-.35.23-.59.15-.14-.05-.29,0-.43.04-.06.02-.12.04-.19.05-.07,0-.13.02-.2.03-.23.04-.44.07-.65.06-.15,0-.26-.06-.29-.29-.06-.4-.19-.98-.49-1.4-.2-.27-.57-.48-1.11-.65-.33-.1-.66-.18-1-.18-.3,0-.61.06-.92.23-.17.09-.4.11-.62.14h-.13s-.13-.02-.15-.04c-.23-.41-.6-.47-.97-.48-.12,0-.2-.02-.24-.06-.04-.04-.06-.11-.05-.22,0-.27-.08-.54-.17-.8-.07-.19-.21-.59-.67-.53-.01,0-.05-.02-.08-.04-.41-.4-.92-.49-1.42-.57-.16-.03-.31-.05-.46-.09-.42-.1-.92.08-1.32.22-.22.08-.37.08-.55-.02-.08-.05-.17-.1-.25-.15-.17-.1-.34-.21-.53-.29-.29-.12-.58-.18-.83-.2-.19,0-.31-.05-.35-.12-.03-.06-.01-.17.06-.3.3-.57.67-1,1.15-1.31.18-.12.33-.27.48-.42.08-.08.15-.16.24-.23.08-.08.17-.15.25-.23.23-.21.46-.42.71-.6,1.61-1.13,3.34-1.76,5.15-1.85.15,0,.29,0,.43,0,.07,0,.15,0,.22,0,1.63.03,3.53.2,5.26,1.16,1.21.68,1.83,1.62,1.87,2.88,0,.21,0,.44-.02.65-.01.18-.02.35-.02.53,0,.14.06.3.16.41.35.42.39.82.16,1.35-.13.29-.13.65-.11.99.04.78-.19,1.32-.7,1.71-.09.07-.18.13-.27.19Z"/>
        <path class="cls-7" d="m93.39,156.19c-.4-.02-.75-.04-1.02-.38-.17-.22-.54-.29-.69-.31-.41-.05-.82-.08-1.22-.11-.14,0-.27-.02-.41-.03h0c-.03-.08-.11-.11-.18-.08-.07.03-.14.06-.21.08-.19.07-.39.14-.52.3-.15.2-.01.62.12.79.94,1.24,2.3,1.9,4.05,1.99.05,0,.09,0,.14,0,.61,0,1.08-.2,1.4-.61.11-.14.18-.5.06-.66-.37-.49-.81-.94-1.52-.98Zm.51,1.59c-.27.1-.65.12-1.1.04-.94-.17-2.14-.76-2.79-1.52,1.17.64,2.45,1.13,3.89,1.48Zm-1.76-1.33c.04.05.1.1.17.13-.41-.15-.8-.33-1.17-.54.39.02.72.06,1,.41Zm.38.21c.17.04.36.05.56.06.38.02.64.1.83.28-.49-.08-.95-.19-1.4-.34Z"/>
        <path class="cls-7" d="m92.82,160.65c-.92.27-1.82.17-2.78.06l-.16-.02c-1.24-.14-2.68-1.2-2.86-2.56l-.07-.54c0-.07-.07-.12-.14-.12h0c-.07,0-.13.05-.14.12-.16,1.09.12,1.93.84,2.57.7.62,1.51.98,2.39,1.08.35.04.71.07,1.09.07.63,0,1.29-.09,1.92-.41.06-.03.09-.11.07-.17-.03-.07-.1-.1-.17-.08Z"/>
        <path class="cls-7" d="m92.38,154.01s.01.09.05.12c.02.02.04.04.06.05.04.04.08.08.14.1.36.12.53.22.51.53,0,.07.03.14.1.21.07.08.18.16.29.17.42.02.85.02,1.26.03h.43s0,0,0,0c.07,0,.13-.06.14-.13v-.26c.02-.07-.04-.14-.11-.14-.06,0-.13-.02-.19-.03-.16-.03-.32-.05-.52-.02-.55.09-.84.12-1.03-.38-.07-.19-.2-.33-.38-.4-.19-.08-.42-.06-.66.05-.04.02-.07.06-.08.11Z"/>
        <path class="cls-7" d="m96.22,154.25h0c-.06,0-.11.05-.13.11-.17.74-.45,1-1.02.9-.06,0-.12.02-.14.07-.03.05-.02.12.03.16.19.18.37.24.54.24.24,0,.43-.12.52-.17.43-.26.54-.66.34-1.22-.02-.06-.07-.09-.13-.09Z"/>
        <path class="cls-7" d="m91.96,154.38c.08,0,.16-.01.26-.04.04-.01.08-.05.09-.1.01-.05,0-.09-.03-.13q-.26-.28.31-.94s.04-.11.01-.17c-.03-.05-.1-.08-.15-.06-.4.12-.72.34-.86.62-.08.16-.1.33-.05.49.07.21.21.32.42.32Z"/>
        <path class="cls-7" d="m101.81,143.77c-.05-.02-.12,0-.15.04s-.04.11-.01.16c.23.4.36.8.4,1.2,0-.08-.02-.16-.05-.24-.17-.5-.65-.89-1.16-.96-.07,0-.12.03-.15.09s0,.13.05.16c.75.51.97,1,.76,1.69-.02.06,0,.13.06.16.02.01.05.02.07.02.04,0,.07-.01.1-.04.22-.22.33-.49.32-.77.02.27.01.54-.04.82-.01.07.02.13.08.16.02,0,.03,0,.05,0,.05,0,.09-.02.12-.07.29-.49.37-1.15.19-1.68-.12-.37-.35-.63-.64-.74Z"/>
        <path class="cls-7" d="m104.93,150.2c-.04-.15-.04-.15.08-.19.07-.02.11-.09.1-.16l-.2-.92c-.01-.06-.06-.1-.12-.11-.08,0-.12.03-.14.09-.15.4-.23.8-.25,1.21,0,.14.08.25.17.37.03.04.07.09.09.13.02.04.07.06.11.07h0s.08-.02.11-.06c.11-.15.07-.31.04-.42Z"/>
        <path class="cls-7" d="m102.89,144.39s-.08.06-.09.12l-.16,1.63c0,.06.03.11.08.14.02,0,.04.01.06.01.04,0,.07-.01.1-.04.55-.58.62-1.37.16-1.83-.04-.04-.09-.05-.14-.03Z"/>
        <path class="cls-7" d="m100.51,144.25c-.06-.02-.12,0-.15.06-.03.05-.02.12.02.17,0,0,0,0,.01.01-.21-.18-.46-.32-.8-.37-.98-.17-1.83-.11-2.59.18-.06.02-.1.09-.09.15.01.06.07.11.13.11.03,0,.06,0,.1,0-.68.14-1.28.51-1.83.85-.06.04-.08.12-.05.18.02.05.07.08.12.08.02,0,.03,0,.05,0,.14-.06.29-.12.43-.18.3-.13.62-.27.93-.34.92-.22,1.78-.44,2.53.33.05.05.12.06.18.02.05-.04.07-.11.04-.17l-.02-.04c-.09-.18-.19-.39-.38-.45-.26-.09-.59-.18-.93-.24.41,0,.81,0,1.22.02.42.02.75.26.99.71.05.1.09.23.14.37.02.07.05.15.08.24.02.06.07.09.13.09,0,0,.02,0,.02,0,.03,0,.05-.02.07-.04.01.02.02.04.04.05.02.02.05.02.08.02.03,0,.06-.01.09-.03.26-.22.37-.54.3-.88-.09-.41-.44-.76-.85-.87Zm.15.58c.18.27.25.52.22.8-.03-.32-.1-.58-.22-.8Z"/>
        <path class="cls-7" d="m93.05,145.78s-.04-.07-.08-.08c-.04-.01-.08-.01-.11,0l-1.41.76c-.07.04-.09.12-.06.18l.06.12-1.44.46s-.06.04-.08.07c-.02.03-.02.07,0,.11l.04.12s.04.07.08.08c.02,0,.03,0,.05,0,.02,0,.04,0,.06-.02.25-.13.53-.19.83-.24.06-.01.11-.02.17-.04l-.93.36c-.06.02-.1.09-.09.15s.07.11.13.11c.04,0,.08,0,.11,0,.71,0,1.24-.22,1.69-.71.04-.05.05-.12.01-.17-.02-.03-.04-.04-.07-.05.12-.07.24-.16.35-.28.04-.05.05-.12.02-.17-.03-.05-.1-.08-.16-.06l.81-.44c.06-.03.09-.1.06-.17l-.05-.13Z"/>
        <path class="cls-7" d="m104.16,150.74s-.04-.06-.08-.07c-.03-.01-.07-.01-.11,0l-.17.08c-.07.03-.1.12-.06.18l.38.78s.05.06.08.07c.01,0,.03,0,.04,0,.02,0,.05,0,.07-.02l.15-.09c.06-.04.09-.11.06-.18l-.36-.78Z"/>
        <path class="cls-7" d="m93.18,145.07l-1.12.41s-.06.04-.08.07c-.01.04-.01.07,0,.11l.06.14c.02.05.07.09.13.09.02,0,.03,0,.05,0l1.11-.42s.06-.04.08-.07c.01-.03.02-.07,0-.11l-.05-.13c-.03-.07-.11-.11-.18-.08Z"/>
      </g>
      <path class="cls-7" d="m63.17,162.21c.66.59,1.12.97,2.03,1.46,2.45,1.31,14.73,7.84,14.73,7.84,0,0,.22.11.6.31.38.2.94.48,1.62.8.17.08.35.16.53.25.17.08.36.18.54.28.38.2.78.43,1.19.67.83.48,1.72,1,2.62,1.56.47.29.95.54,1.42.79.48.25.95.5,1.42.74.93.49,1.83.96,2.66,1.39.6.31,1.1.57,1.35.7.92.47,1.49.64,2.35.85-.66-.59-1.13-.96-2.04-1.44-.25-.13-.74-.39-1.34-.7-.83-.43-1.73-.9-2.66-1.39-.47-.24-.94-.49-1.42-.74-.47-.25-.94-.49-1.38-.77-.9-.57-1.8-1.09-2.64-1.57-.42-.24-.82-.47-1.21-.67-.19-.1-.38-.2-.58-.3-.18-.09-.36-.17-.53-.25-.67-.32-1.22-.6-1.6-.79-.38-.2-.59-.31-.59-.31,0,0-12.27-6.54-14.73-7.84-.91-.48-1.48-.65-2.34-.87Z"/>
      <path class="cls-7" d="m60.27,165.19c.67.58,1.14.95,2.05,1.43.39.2,1.16.61,2.1,1.11,1.7.9,3.68,1.99,5.56,3.07.94.54,1.86,1.07,2.7,1.57.86.49,1.64.94,2.31,1.32.67.38,1.23.66,1.62.87.39.2.61.32.61.32,0,0,.87.46,2.23,1.18,1.35.72,3.19,1.68,5.07,2.73.12.07.22.13.33.2l.35.22.7.44c.47.29.94.57,1.41.84.47.27.94.53,1.4.78.23.12.46.24.68.36.22.11.43.22.64.33.61.31,1.12.55,1.38.67.94.43,1.53.56,2.41.69-.71-.53-1.2-.86-2.12-1.3-.25-.12-.75-.36-1.36-.66-.21-.11-.42-.21-.63-.32-.22-.12-.44-.23-.67-.35-.45-.24-.91-.5-1.38-.77-.47-.27-.93-.55-1.4-.83l-.69-.44-.34-.22c-.12-.07-.25-.15-.37-.22-1.91-1.07-3.74-2.02-5.09-2.74-1.35-.71-2.23-1.17-2.23-1.17,0,0-.22-.12-.61-.32-.38-.21-.95-.49-1.61-.87-.66-.38-1.44-.82-2.29-1.31-.85-.49-1.77-1.02-2.71-1.57-1.89-1.08-3.88-2.18-5.58-3.08-.59-.31-1.12-.59-1.57-.83-.23-.12-.42-.22-.54-.28-.92-.47-1.49-.63-2.36-.83Z"/>
      <path class="cls-7" d="m57.45,168.9c.65.6,1.11.98,2.02,1.48,1.12.61,4.47,2.44,7.54,4.12,1.87,1.02,3.66,1.99,4.95,2.73.65.37,1.16.69,1.53.92.37.23.58.35.58.35,0,0,.84.5,2.15,1.22,1.32.73,3.1,1.7,5,2.69.48.25.95.49,1.46.73.49.22.96.45,1.43.68.47.24.93.48,1.38.71.44.23.87.46,1.29.67.6.32,1.1.57,1.35.7.92.47,1.49.64,2.35.85-.66-.59-1.13-.96-2.04-1.45-.25-.13-.74-.39-1.34-.71-.41-.22-.84-.44-1.29-.67-.45-.24-.91-.48-1.39-.72-.47-.24-.97-.48-1.46-.7-.47-.22-.95-.47-1.42-.71-1.89-.98-3.67-1.95-4.98-2.68-1.31-.73-2.14-1.21-2.14-1.21,0,0-.21-.12-.57-.34-.36-.22-.9-.56-1.55-.93-1.31-.76-3.09-1.72-4.96-2.74-3.08-1.68-6.43-3.51-7.55-4.11-.91-.49-1.48-.66-2.34-.89Z"/>
      <path class="cls-7" d="m54.85,172.01c.59.66,1.06,1.06,1.94,1.58.12.07.3.17.53.3.44.25.97.54,1.55.86,1.69.93,3.69,2.01,5.6,3.04.95.51,1.89,1.02,2.75,1.48.85.48,1.64.92,2.3,1.29.67.38,1.22.69,1.6.9.38.21.6.33.6.33,0,0,11.83,6.44,14.19,7.73.91.49,1.48.67,2.33.89-.65-.6-1.11-.98-2.01-1.48-2.36-1.29-14.19-7.73-14.19-7.73,0,0-.22-.12-.6-.33-.38-.21-.93-.52-1.59-.9-.67-.38-1.46-.82-2.31-1.3-.86-.47-1.8-.97-2.75-1.49-1.91-1.03-3.91-2.1-5.59-3.03-.93-.52-1.69-.95-2.07-1.16-.89-.51-1.45-.69-2.28-1Z"/>
      <path class="cls-7" d="m51.63,175.49c.14.16.28.33.42.46.14.14.28.26.44.39.3.25.64.47,1.09.73.12.07.31.17.53.3.11.06.24.13.37.21.37.2.76.42,1.18.64,1.69.91,3.69,1.97,5.61,2.97,1.93.99,3.76,1.94,5.12,2.64,1.37.69,2.25,1.13,2.25,1.13,0,0,.22.11.61.3.39.19.94.48,1.6.85,1.32.75,3.12,1.78,5,2.85,2.78,1.58,5.81,3.31,6.82,3.88.9.51,1.46.69,2.32.93-.64-.61-1.09-1-1.98-1.52-1.01-.57-4.04-2.3-6.81-3.89-1.88-1.07-3.68-2.09-5.01-2.85-.67-.37-1.23-.67-1.62-.87-.39-.19-.62-.3-.62-.3,0,0-.88-.44-2.23-1.13-1.36-.7-3.19-1.65-5.11-2.64-1.92-1-3.92-2.05-5.6-2.97-.58-.32-1.1-.6-1.54-.85-.23-.13-.41-.23-.53-.29-.45-.25-.81-.42-1.16-.57-.18-.07-.35-.14-.53-.21-.19-.06-.36-.14-.57-.22Z"/>
      <g>
        <path class="cls-7" d="m65.49,162.21c.22.08.52-.06.63-.26.08-.15.16-.25.26-.35-.03.1-.06.2-.11.28-.11.18-.1.44.13.52.24.08.5-.07.63-.26.09-.13.18-.23.32-.36,0,.01,0,.02,0,.03-.02.08-.05.15-.09.22-.08.1-.15.19-.21.28-.11.16-.11.4.08.49.2.1.46.01.6-.14.03-.03.05-.07.07-.1,0,0,0,0,0,0,.09-.14.15-.21.26-.32.06-.06.04-.04.12-.1,0,0,.02-.01.03-.02.02.04.04.06.04.12,0,.12-.07.25-.12.35,0,0,0,0,0,0-.02.03-.04.07-.05.1-.14.42.32.5.62.34,0,.04-.01.08-.02.1-.03.05-.02.03-.04.05-.01.02-.13.11-.08.08-.17.13-.35.36-.21.58.13.2.45.16.61.04.43-.33.9-.92.54-1.47-.09-.13-.21-.22-.34-.26,0-.08,0-.17,0-.26-.04-.27-.24-.5-.5-.59-.13-.04-.26-.04-.39-.01,0-.18-.06-.36-.21-.47-.22-.15-.47-.08-.7.03,0-.08,0-.16,0-.25-.02-.25-.37-.25-.54-.19-.61.23-1.15.67-1.47,1.25-.1.19-.1.44.13.52Zm3.19.74s-.02-.06,0,0h0Z"/>
        <path class="cls-7" d="m51.2,178.97c.22.08.45.03.58-.17.02.12.09.23.21.31.14.09.4.13.56.03-.08.39.59.67.88.37.05-.05.1-.11.15-.18.05-.06.09-.13.15-.19.01-.01.03-.02.04-.04-.04.1-.08.2-.13.29-.1.31.23.54.54.53-.05.06-.11.12-.17.16-.45.35.31.92.67.63.42-.32.75-.85.4-1.36-.07-.11-.18-.19-.31-.26,0-.08,0-.15-.02-.23-.07-.32-.31-.58-.62-.68-.09-.03-.18-.04-.27-.05-.04-.17-.14-.31-.3-.42-.2-.12-.4-.13-.61-.08-.06-.29-.42-.49-.7-.38-.61.23-1.08.64-1.4,1.2-.12.21.17.45.34.51Z"/>
        <path class="cls-7" d="m72.6,169.99c-.27.3-.11,1.04.38.81.14-.06.3-.19.38-.34-.02.15-.04.3-.12.46-.14.32.16,1.13.53.64.1-.14.22-.26.35-.37-.01.02-.01.03-.02.05-.27.43.25,1.09.59.55.3-.48.4-1.01.34-1.57-.02-.18-.19-.47-.42-.38-.16.07-.3.16-.44.25-.01-.22-.06-.42-.19-.59-.21-.27-.4-.27-.58-.17-.07-.27-.22-.51-.47-.68-.31-.21-.63-.21-.93-.1-.03-.18-.06-.35-.13-.53-.06-.16-.21-.31-.4-.26-.11.03-.19.09-.29.13-.03-.18-.19-.46-.42-.37-.2.08-.39.17-.58.27.01-.2,0-.4-.04-.61-.04-.21-.17-.43-.42-.38-.12.03-.23.07-.34.13-.03-.1-.05-.2-.09-.3-.06-.15-.21-.32-.4-.26-.11.03-.21.08-.31.12,0-.15-.01-.29-.04-.44-.04-.2-.17-.44-.42-.38-.18.05-.34.13-.51.21,0-.13,0-.26-.02-.39-.02-.2-.19-.45-.42-.38-.09.02-.16.06-.25.09,0-.02,0-.04.01-.06.02-.18-.08-.53-.33-.52-.36.02-.68.09-.99.21,0-.12.02-.24.02-.36,0-.22-.2-.42-.42-.38-.39.07-.74.23-1.06.43,0-.15,0-.29,0-.45-.02-.23-.26-.52-.51-.34-.54.39-.97.85-1.32,1.42-.27.43.25,1.09.59.55.14-.23.3-.43.48-.62-.01.09-.02.17-.04.26-.08.32.23.95.57.53.24-.29.52-.5.84-.64-.06.1-.14.2-.23.3-.34.34.02,1.17.46.74.29-.28.62-.47.99-.57-.21.15-.41.32-.59.53-.25.28-.1,1.08.38.81.25-.14.44-.33.61-.53.14-.09.28-.18.43-.25-.03.1-.05.19-.1.29-.18.36.1,1.05.53.64.18-.17.38-.29.6-.39-.03.17-.09.33-.2.49-.13.19-.21.48-.06.69.12.17.38.25.52.04.17-.24.38-.4.62-.53,0,.12,0,.23-.03.36-.11.43.3.77.54.56-.18.26-.08,1.17.38.8.2-.16.4-.3.61-.42-.04.38.22.83.56.46.14-.18.31-.3.49-.4,0,.18-.01.36-.09.56-.18.54.45.92.69.32.17-.53,1.14-.2.75.24Z"/>
        <path class="cls-7" d="m69.95,172.64c-.07.04-.13.08-.19.12-.01-.11-.02-.21-.04-.32-.03-.19-.21-.46-.44-.36-.1.04-.2.08-.3.13,0-.09.03-.17.03-.26,0-.31-.21-.62-.54-.45-.1.05-.2.11-.31.16,0-.09,0-.17-.01-.26-.04-.28-.27-.45-.53-.31-.18.09-.33.2-.49.32-.02-.22-.03-.45-.05-.67-.01-.18-.23-.47-.44-.36-.27.14-.54.27-.82.41.02-.25.01-.5-.04-.75-.05-.24-.27-.49-.53-.31-.02.01-.04.03-.06.04.01-.29-.1-.69-.42-.54-.16.07-.29.17-.44.26.09-.33-.16-.76-.52-.57-.14.08-.27.18-.4.26,0-.16,0-.32,0-.48-.02-.25-.3-.48-.53-.31-.07.05-.13.12-.2.17.02-.05.03-.1.05-.15.08-.24-.09-.74-.43-.62-.13.05-.24.13-.36.19.03-.21.06-.43.06-.65,0-.36-.31-.68-.62-.37-.46.47-.92.93-1.38,1.4-.34.34.06,1.15.49.71.16-.16.32-.32.48-.48-.05.11-.07.23-.13.34-.18.35.22,1.09.56.62.06-.09.14-.15.21-.22-.04.12-.09.25-.13.38-.13.38.26.84.6.5.14-.14.29-.28.44-.41-.04.1-.06.2-.11.29-.19.36.17,1.05.56.62.06-.07.13-.12.19-.18-.1.36.2,1,.57.56.08-.1.18-.17.27-.26-.01.32.16.73.51.5l.52-.35c-.04.14-.1.27-.18.41-.14.22.01.92.39.74.38-.19.77-.38,1.15-.58.02.29.04.59.06.88.02.32.39.5.61.24.04-.05.09-.08.13-.12,0,.3.18.59.51.41l.36-.19c-.09.27.03.84.4.69.19-.08.37-.15.56-.23,0,.13.03.25.02.38-.01.33.33.71.62.37.02-.02.04-.04.06-.06.06.18.23.33.42.27.25-.07.29-.38.28-.59-.01-.19-.03-.38-.04-.57-.01-.18-.23-.47-.44-.36Z"/>
        <path class="cls-7" d="m60.89,173.19c-.06.18-.13.36-.19.53-.08.23-.02.52.17.67.18.14.36.08.47-.09.04.14.12.26.26.32.21.09.43-.08.44-.3,0-.14.12-.23.2-.34.1-.13.17-.27.21-.42.09-.35.02-.8-.31-1.01-.11-.07-.23-.1-.35-.04-.04-.15-.11-.28-.26-.39-.24-.17-.54-.08-.79.04,0-.25-.03-.49-.22-.67-.14-.13-.29-.17-.44-.14,0-.25-.19-.69-.49-.57-.06.02-.11.07-.17.09-.04-.13-.12-.25-.29-.34-.17-.09-.32-.06-.46.02-.04-.24-.33-.63-.58-.4-.39.36-.78.71-1.18,1.05-.19.16-.21.43-.1.65.08.17.33.38.52.22.02-.02.05-.04.07-.06.09.27.32.49.55.31.09-.07.18-.15.27-.22.05.35.39.74.65.4.03-.05.08-.08.12-.12-.01.04-.02.08-.04.12-.08.21-.03.47.13.63.15.14.35.17.49,0,.09-.11.19-.22.28-.33-.01.05-.02.11-.04.16-.07.22-.04.47.13.63.14.13.36.18.49,0,.1-.13.26-.3.44-.42Z"/>
        <path class="cls-7" d="m67.99,175.98c-.07-.11-.18-.2-.34-.23-.04,0-.07,0-.11,0,0-.24-.07-.44-.31-.54-.15-.07-.31-.07-.45-.03-.03-.03-.04-.06-.08-.09-.15-.12-.33-.14-.52-.11.01-.22-.12-.41-.4-.35-.02,0-.05.02-.07.02.06-.23.04-.48-.22-.58-.17-.07-.36-.03-.53.05.01-.1.04-.2.04-.31,0-.16-.1-.3-.26-.32-.18-.02-.33.08-.44.21,0-.01,0-.03,0-.04.02-.16-.11-.3-.26-.32-.18-.02-.34.09-.45.22-.25.31-.49.62-.74.93-.13.16-.19.47,0,.61.1.08.21.07.32.03-.05.16.03.37.2.42.17.05.33-.05.45-.16.02.25.29.41.53.25,0,0,0,0,0,0-.1.17-.08.43.11.52.19.1.43-.03.55-.19,0,0,0,0,0,0-.02.14.01.28.15.35.2.1.42-.03.55-.19.05-.06.11-.11.17-.15-.07.12-.13.24-.16.35-.05.15.01.34.15.41.16.08.33,0,.46-.1.05-.04.1-.08.15-.13-.04.06-.06.13-.1.18-.19.26-.14.78.29.66.19-.05.35-.17.48-.32,0,0,.02-.02.02-.03,0,.01,0,.02-.01.04-.1.18-.07.48.15.55.24.08.47-.13.57-.33.16-.3.3-.91.11-1.26.05,0,.05-.02,0-.02Zm-.59.65s0,0,0,0h0Z"/>
        <path class="cls-7" d="m59.73,176.59c.03-.14.01-.27-.13-.39-.15-.12-.35-.13-.55-.08,0-.06,0-.12-.02-.18-.07-.29-.37-.33-.61-.23,0-.16-.02-.33-.07-.49-.11-.35-.64-.15-.8.02,0,0-.01.01-.02.02,0-.02,0-.03,0-.05-.06-.27-.3-.32-.52-.26,0-.19-.05-.37-.24-.51-.2-.14-.44-.13-.66-.05.04-.14.08-.27.11-.41.06-.35-.36-.47-.62-.33-.67.36-1.3.78-1.87,1.29-.16.14-.3.36-.13.55.15.17.5.12.66-.02.25-.22.51-.43.78-.62-.06.16-.12.33-.2.49-.23.46.4.58.69.36.14-.1.27-.21.41-.31-.1.2-.21.39-.31.59-.23.44.41.61.69.36.09-.08.2-.15.3-.23,0,.04,0,.09-.01.13-.09.47.49.42.76.23.04.15.17.27.35.25.1-.01.19-.04.29-.07-.17.29.06.51.34.5-.06.21.07.43.34.42.13,0,.25-.03.37-.05-.18.41.49.61.78.25.23-.28.34-.57.36-.94.01-.25-.28-.3-.49-.26Z"/>
        <path class="cls-7" d="m63.98,178.79l-.22.19c-.04-.18-.16-.37-.37-.33,0,0,0,0,0,0,0-.27-.24-.48-.5-.36-.14.07-.25.16-.37.25-.04-.12-.09-.24-.15-.35-.01-.02-.03-.04-.05-.06,0-.01.01-.02.02-.04.07-.16.04-.4-.07-.53-.09-.12-.26-.19-.4-.09-.4.28-.8.55-1.2.83-.2.14-.29.42-.22.65.06.19.28.38.48.24.07-.05.15-.1.22-.15-.03.16,0,.35.11.46.13.13.33.11.45-.02.02-.02.05-.05.07-.07-.03.18.02.4.16.5.15.1.29.05.4-.05.02.05.02.11.05.15.13.16.34.17.48.02.03-.03.05-.07.08-.1,0-.01.03-.02.04-.04-.01.15.01.3.12.41.14.14.32.1.45-.02.28-.24.56-.49.84-.73.36-.31.03-1.16-.43-.75Z"/>
        <path class="cls-7" d="m113.96,141.02c.01-.14.02-.27.01-.42-.01-.23-.27-.39-.49-.38-.26.01-.49.07-.71.14-.07-.14-.19-.26-.38-.33-.22-.08-.44-.07-.64,0,0-.01,0-.02,0-.04-.07-.26-.43-.31-.66-.24-.08-.25-.47-.31-.71-.23-.04.01-.08.03-.12.05.03-.17.06-.33.05-.52,0-.3-.41-.43-.67-.34-.09-.23-.49-.3-.71-.22-.03.01-.05.03-.09.04.04-.34-.08-.61-.61-.64-.15,0-.3.02-.45.06-.04-.25-.16-.47-.44-.59-.24-.11-.48-.09-.71-.02-.06-.26-.35-.38-.6-.33-.2.04-.38.1-.55.17-.06-.26-.35-.38-.6-.32-.04,0-.07.02-.11.03.01-.1.03-.2.03-.31,0-.35-.48-.44-.73-.33-.02,0-.04.02-.06.03,0-.02,0-.05,0-.07-.04-.32-.46-.47-.73-.33-.04.02-.08.05-.12.08.05-.16.11-.31.14-.48.08-.39-.4-.57-.72-.43-.12.05-.22.13-.33.19,0-.04.02-.08.02-.12.04-.29-.41-.42-.62-.36-.19.05-.36.14-.54.2.09-.15.18-.3.26-.46.19-.39-.48-.53-.72-.43-.4.17-.78.37-1.16.59.09-.19.18-.38.26-.58.21-.45-.57-.53-.82-.37-.61.41-1.21.82-1.82,1.22-.51.34.3.79.69.53l.39-.26c-.09.19-.18.38-.26.58-.2.43.57.57.82.37.29-.23.59-.43.89-.63-.08.11-.16.22-.24.33-.35.43.47.67.76.46.3-.21.62-.39.94-.54-.08.2-.19.4-.33.59-.34.47.54.71.84.38.11-.13.24-.22.37-.33-.1.24-.21.49-.35.72-.3.5.54.73.84.38.03-.04.07-.07.11-.1-.05.27.41.43.74.33-.2.37.6.59.89.3.07-.06.14-.1.2-.15-.02.05-.04.09-.06.14-.03.04-.05.07-.08.11-.04.06-.08.11-.13.17,0,0,0,0,0,0-.02.03-.04.05-.06.08-.26.45.66.55.89.3.13-.14.22-.28.3-.44.1-.11.22-.21.35-.29-.02.12-.06.23-.11.35-.09.14-.17.28-.23.4-.21.45.67.62.89.3.05-.07.08-.14.12-.21.16-.24.5-.73.49-.73.11.12.02.35-.11.58-.17.18-.32.38-.43.56-.31.51.53.69.84.38.11-.11.24-.28.35-.47.06-.05.12-.09.18-.14-.09.17-.16.39-.22.49-.21.42.45.51.78.37-.02.05-.04.1-.07.14-.23.41.62.61.87.32-.13.35.46.46.75.36-.2.4.37.62.71.45-.2.39.52.65.79.4.03-.03.04-.05.07-.08h0s.08-.09.15-.18c.02-.03.06-.06.08-.09.19-.22.43-.48.45-.44-.04-.07-.3.43-.3.45-.22.43.68.63.89.3.1-.15.2-.27.32-.37-.05.2-.12.39-.24.59-.24.41.67.63.89.3.1-.2.26-.36.46-.48.28-.2.14-.43-.1-.54Z"/>
        <path class="cls-7" d="m87.91,186.95c-.12.27-.26.54-.43.79-.12.18-.51.79-.58.25-.06-.47.26-.84.15-1.31,0,0,0,0,0,0h0s0-.06-.01-.1c-.07-.19-.4-.18-.47,0-.12.32-.35.55-.64.7.17-.47.34-.95.52-1.42.09-.24-.35-.28-.46-.15-.15.17-.29.34-.44.51-.08.1-.34.5-.45.51-.29.02-.06-.33,0-.47.07-.21.15-.42.22-.63.08-.21-.36-.33-.46-.15-.12.21-.25.41-.42.59-.07.07-.21.27-.34.15-.05-.05,0-.23.02-.28.12-.37.41-.59.39-1.02-.01-.17-.32-.25-.43-.14-.35.36-.76.61-1.23.73.11-.25.22-.49.34-.74.09-.2-.2-.36-.36-.26-.17.1-.33.2-.5.3-.07.04-.38.3-.46.27,0,0,.41-.68.57-.93.02-.03.04-.05.05-.08.13-.24-.3-.37-.44-.19-.07.09-.18.23-.29.39-.11.1-.23.18-.36.2-.06,0-.09,0-.08.05,0-.08.02-.16.03-.24.02-.17.04-.34.06-.51.04-.04.08-.08.11-.11.19-.21-.16-.36-.33-.3-.13.04-.24.12-.35.19.08-.12.14-.24.16-.39.03-.17-.19-.26-.33-.23-.37.08-.7.26-.93.57-.01.02-.03.04-.04.06-.08.04-.14.1-.11.18-.12.23-.19.51-.03.7.29.34.82.12,1.27-.19-.03.33.03.64.43.65.07,0,.14-.02.21-.03-.05.2-.04.39.11.52.22.19.53.09.82-.08-.06.12-.11.25-.17.37-.07.15.1.3.25.28.48-.04.92-.18,1.32-.41-.2.38-.39.77.06,1.07.21.14.42.11.61,0-.02.28.06.51.41.57.24.04.46-.06.63-.22.01-.01.02-.03.04-.04l-.23.64c-.06.18.22.25.33.23.33-.04.62-.16.86-.35-.06.18-.12.37-.09.56.03.26.17.51.42.62.75.31,1.29-.95,1.52-1.45.11-.24-.35-.41-.44-.19Zm-7.94-2.91s.02-.05.03-.08c.03,0,.07.01.09,0,.12-.01.23-.05.34-.1-.04.05-.08.08-.12.13,0,0,0,0,0,0,0,0,0,0,0,0,0,.01-.02.02-.03.03-.09.05-.18.09-.26.09-.11,0-.07.04-.06-.09Z"/>
        <path class="cls-7" d="m91.23,183.83c-.08-.06-.19-.07-.29-.04-.22.08-.39.23-.55.39-.07.06-.14.12-.23.18-.04.03.03-.01,0,0-.02,0-.03.01-.05.02,0,0-.01,0-.02,0,0,0-.08.01-.04,0,.04,0-.03,0-.04,0-.02,0-.07-.01,0,0-.02,0-.04,0-.06-.01-.06-.01.03.02-.01,0-.01,0-.03-.01-.04-.02.05.03,0,0-.01-.02.02.02.02.01,0,0-.01-.02-.01-.02,0,0,0,0,0-.01,0-.02,0-.05,0,.02,0-.02,0,0,0-.05,0-.03,0-.05.03-.07.05-.1.03-.03.04-.04.09-.08.02-.01.04-.02.06-.04,0,0,.08-.04.04-.03.09-.05.17-.14.1-.25-.07-.09-.23-.13-.33-.08-.18.1-.4.22-.47.43-.06.19,0,.38.16.49.17.12.38.15.59.13.04,0,.07-.02.11-.03-.02.07.02.15.08.18.08.05.18.06.27.02.41-.14.71-.5.8-.92.02-.1-.09-.16-.18-.18Z"/>
        <path class="cls-7" d="m92.72,179.96c0,.17-.06.31-.16.42.04-.24.07-.48.11-.72.01-.09-.04-.18-.13-.2-.1-.02-.18.07-.23.14-.09.13-.75,1.11-.9.95-.05-.05,0-.19,0-.25.02-.13.05-.27.07-.4.05-.27.1-.54.14-.8.04-.2-.21-.26-.32-.11-.23.3-.48.63-.81.82.06-.08.12-.16.18-.25.12-.15.24-.31.34-.48.12-.21-.12-.46-.29-.23-.02.03-.04.05-.05.08-.11.19-.24.37-.4.53-.14.14-.38.39-.59.38-.48-.03-.22-.89-.22-1.15,0-.32-.4-.19-.4.06,0,.34-.13.67-.05,1.01.06.26.23.51.52.54.09.01.18,0,.27-.03,0,.1.03.19.16.18.47-.04.84-.32,1.16-.65-.03.18-.07.36-.1.54-.04.24-.07.6.22.7.29.1.55-.18.72-.38.07-.09.14-.18.21-.27-.02.14-.04.28-.06.43-.02.15.1.22.23.18.46-.15.79-.62.78-1.1,0-.32-.4-.19-.4.06Z"/>
        <path class="cls-7" d="m96.28,177.04c-.04.16-.1.31-.19.45-.09.13-.36.42-.39.11-.01-.13.09-.33.14-.45.07-.17.17-.33.28-.48.1-.22-.09-.56-.29-.28-.05.07-.11.16-.17.26-.17.21-.41.35-.69.39-.07.01-.19.03-.24-.03-.03-.04.03-.28.04-.32.03-.21.06-.43.1-.64.03-.16-.15-.37-.29-.21-.24.28-.47.56-.71.83-.02.02-.06.05-.09.08.06-.19.11-.37.17-.56.03-.11,0-.39-.19-.33-.14.05-.27.09-.41.14-.09.03-.34.16-.42.13-.02,0-.03,0-.04,0,0,0,0-.02,0-.05-.02-.05.01-.16.02-.21.01-.16.03-.31.04-.47.02-.19-.2-.39-.33-.16-.08.15-.2.26-.34.34.02-.26.08-.51.21-.75h0s.02-.04.03-.06c.07-.21-.17-.49-.31-.23-.01.02-.01.04-.02.06,0,0,0,0,0,0-.11.31-.32.56-.61.71-.1.05-.1.08-.09-.01,0-.07.1-.19.13-.26.1-.19.19-.38.29-.56.11-.22-.11-.56-.29-.28-.11.17-.78.91-.96.48-.04-.1.01-.32.03-.43.03-.19.09-.38.25-.5.18-.14.09-.61-.14-.44-.26.19-.39.46-.46.78-.06.29-.13.67.01.95.18.34.47.32.76.17-.07.26-.07.5.16.61.21.11.47-.05.65-.2,0,.12-.03.24-.02.36,0,.1.09.23.21.2.15-.04.28-.12.41-.2-.02.24,0,.46.15.59.12.1.26.09.41.05.14-.04.27-.08.41-.13-.12.38-.2.83.17.85.22.01.37-.18.5-.32.08-.1.16-.19.24-.29-.05.4-.01.79.39.82.2.02.4-.04.58-.12-.06.27-.05.53.11.71.49.57,1.06-.57,1.16-.93.07-.27-.26-.48-.34-.17Z"/>
        <path class="cls-7" d="m85.53,190.22c-.09,0-.28.05-.28.17,0,.3-.09.58-.25.83-.04.06-.08.1-.13.15.08-.33.16-.66.25-.98.02-.09-.07-.17-.14-.19-.09-.02-.23,0-.29.08-.14.17-.28.33-.42.48-.08.08-.16.16-.24.24-.03.03-.06.06-.09.09,0-.06.01-.12.03-.18.05-.17.15-.31.28-.42.09-.08.05-.21-.04-.26-.11-.06-.25-.03-.34.05-.19.17-.33.39-.39.64-.03.13-.06.28,0,.4.05.13.19.2.33.2.27,0,.46-.18.64-.36-.06.24-.12.48-.18.72-.04.18.22.23.33.18.65-.3,1.14-.94,1.15-1.67,0-.12-.09-.19-.21-.2Z"/>
        <path class="cls-7" d="m82.54,194.23c-.05.15-.12.29-.19.42-.06.11-.18.36-.29.42-.02.01-.02.02-.03.02,0,0,0-.02-.01-.04-.04-.06,0-.23,0-.31,0-.2-.01-.41-.02-.61,0-.19-.19-.29-.32-.13-.18.23-.37.44-.56.65-.02-.14-.02-.29,0-.43.03-.18-.16-.43-.31-.19-.11.18-.23.39-.42.49-.23.13-.52.07-.51-.23.01-.35.2-.63.1-1-.04-.16-.21-.21-.31-.07-.11.15-.78.93-.91.48-.04-.15.06-.46.1-.61.05-.22.12-.44.21-.65.08-.21-.1-.49-.29-.26-.25.29-.55.52-.87.71.09-.3.18-.6.27-.9.06-.22.11-.71-.28-.63-.32.07-.5.51-.7.73-.07.08-.37.43-.47.36-.08-.06,0-.14.04-.22.03-.09.04-.17.04-.26.02-.32-.36-.23-.38.05-.01.25-.2.42-.14.69.05.2.21.34.42.3.25-.06.48-.33.65-.5.05-.05.32-.41.47-.56-.04.19-.15.41-.19.55-.08.27-.16.54-.24.81-.04.14.06.34.23.27.32-.15.61-.34.88-.56-.03.11-.06.22-.08.33-.04.27-.13.66.08.88.32.32.76.02,1.09-.3-.08.37-.24.76.13,1.04.37.27.73.08,1.01-.21.02.16.05.32.1.48.03.1.18.13.25.06.19-.2.35-.41.53-.61,0,.21,0,.41.02.62.01.18.08.4.31.38.21-.02.38-.29.49-.44.18-.24.32-.51.43-.8.1-.26-.21-.51-.32-.2Z"/>
        <path class="cls-7" d="m50.33,182.09c.08-.06.13-.13.06-.23-.15-.21-.32-.4-.53-.55-.07-.05-.35-.19-.5-.29,0-.03.01-.06,0-.09-.01-.08-.04-.12-.11-.16-.1-.06-.25-.05-.34.03-.17.16-.18.35.03.49.31.21.59.34.83.59-.13.06-.26.19-.11.31,1.72,1.32,3.86,1.92,5.73,2.98-2.08-.9-4.14-1.85-6.16-2.88-.21-.11-.53.21-.26.35,2.66,1.37,5.38,2.62,8.15,3.75.18.08.51-.14.31-.32-2.05-1.86-4.88-2.39-7.12-3.96Z"/>
        <path class="cls-7" d="m78.96,199.18c-.31-.21-.61-.41-.92-.62.27.14.53.27.8.41.25.13.49-.17.2-.32-.94-.48-1.88-.95-2.82-1.43-.3-.15-.59-.31-.88-.47-.5-.34-1-.67-1.5-1.01-.21-.14-.56.05-.31.26.47.41,1,.73,1.54,1.03.52.35,1.03.69,1.55,1.04.51.34,1.01.68,1.52,1.01.25.17.51.34.76.51,0,0,.02.01.03.02-2.24-1.03-4.33-2.37-6.17-4.02-.19-.17-.55.05-.31.26,2.1,1.88,4.52,3.4,7.13,4.47.1.04.4.03.34-.16-.14-.48-.55-.73-.94-.99Z"/>
        <path class="cls-7" d="m90.89,133.86c-.25.08-.5.16-.75.24-.24.08-.28.48.03.4.3-.07.6-.11.9-.13-.17.13-.36.25-.52.4-.19.18-.05.43.2.31.3-.14.6-.25.91-.35-.16.22-.3.45-.41.7-.06.12.01.26.16.25.32-.04.62-.14.89-.3-.07.25-.12.51-.13.79,0,.2.25.14.34.06.19-.16.36-.34.52-.54.04.16.09.31.18.46.11.18.41.05.42-.14.01-.12.02-.25.03-.37.1.17.2.34.3.51.13.21.44,0,.43-.2-.01-.13-.02-.25-.03-.38.07.12.14.23.2.36.11.24.51-.03.42-.25-.11-.25-.2-.51-.3-.76.2.14.4.29.58.46.19.14.55-.16.36-.33-.22-.17-.42-.38-.62-.57.22-.01.44-.02.66-.03.15,0,.41-.33.18-.41-.23-.08-.47-.17-.7-.25.27-.07.53-.13.8-.2.21-.05.3-.41.02-.41-.2,0-.39.03-.59.04.18-.12.39-.22.61-.27h.06c.2-.06.3-.48.02-.43-.02,0-.04.01-.06.02,0,0,0,0,0,0-.45.1-.89.2-1.34.3.12-.23.21-.47.25-.73.02-.17-.15-.25-.29-.15-.13.1-.26.19-.39.29.04-.14.09-.27.13-.41.06-.2-.1-.3-.27-.21-.25.13-.46.31-.66.52-.03-.29-.06-.58-.12-.86-.06-.27-.39-.09-.44.1l-.05.23c-.03-.1-.07-.2-.1-.31-.07-.22-.41-.02-.42.14,0,.11-.01.22-.02.33l-.16-.29c-.13-.23-.49.03-.42.25.07.2.13.39.2.59-.27-.2-.52-.42-.8-.6-.18-.12-.47.2-.32.36.07.08.17.15.24.23-.2,0-.41.02-.61.04-.14.02-.41.32-.18.41.31.12.6.28.9.42-.32.01-.64.01-.96,0-.21-.01-.48.34-.19.42l.87.25Zm.62-1.11c.06.05.11.11.18.17-.12-.06-.25-.12-.37-.17.07,0,.13,0,.2,0Zm.47.79c.16-.02.39-.29.18-.41-.03-.02-.07-.03-.1-.05.01,0,.03-.01.04-.02.04.03.08.06.12.09.17.15.46-.09.39-.29-.02-.05-.03-.09-.05-.14.06-.04.11-.1.12-.17.07.18.28.06.37-.07,0,.08.03.15.03.23.01.21.31.14.39.01.1-.17.22-.31.35-.43-.05.14-.09.28-.14.42-.06.17.1.33.27.21.14-.1.29-.21.43-.31-.06.16-.15.31-.26.45-.13.16,0,.33.18.29.18-.04.35-.08.53-.12-.05.06-.11.11-.16.17-.03.04-.04.08-.04.13-.08.02-.16.04-.24.06-.13.03-.32.33-.13.4.1.04.2.07.3.11-.02,0-.05,0-.07,0-.06,0-.12.04-.17.09-.17-.05-.37.15-.31.32.01.04.03.07.04.1-.1.05-.19.15-.18.26,0,.06.01.12.02.18l-.15-.25c-.1-.17-.36-.06-.41.11-.09-.02-.21.02-.26.11-.11.19-.23.36-.37.52.06-.26.15-.52.29-.76.17-.27-.17-.4-.34-.17-.21.28-.5.47-.82.57.14-.24.29-.47.48-.67.14-.15.11-.4-.14-.34-.14.03-.27.08-.4.12.14-.1.18-.32,0-.36.1-.11.13-.28-.04-.33l-.15-.04c.14-.01.28-.02.41-.03Z"/>
        <path class="cls-7" d="m107.73,141.17s0,0,0,0c0,0,0,0,0,0-.02,0-.03-.01-.05-.01-.1-.02-.15.04-.18.12-.03,0-.06-.02-.1-.02-.15-.03-.22.15-.2.3-.08-.03-.15-.06-.23-.09-.83-.55-1.69-1.05-2.58-1.49-.75-.44-1.55-.81-2.4-1.08-.14-.04-.23.08-.25.2-1.55-.87-3.1-1.73-4.66-2.6-.17-.1-.27.13-.24.31-.18-.09-.36-.19-.54-.28-.24-.13-.33.33-.15.46.16.12.32.23.48.35-.17.03-.25.36-.07.45.71.35,1.42.7,2.13,1.05.25.12.33-.33.15-.46,0,0,0,0,0,0,.27.14.53.28.8.41.14.07.22-.05.24-.18.17.1.34.19.51.29-.09.11-.1.32.03.4,1.29.75,2.64,1.38,4.04,1.89.05.03.11.05.16.08.02,0,.03,0,.04,0,.45.16.9.31,1.35.44.1.03.16-.05.19-.15.03.02.07.04.1.07.5.47,1.05.84,1.69,1.12.15.06.24-.08.25-.23.26.11.53.23.79.35.23.11.33-.29.2-.43-.08-.08-.16-.15-.24-.22.21.07.42.13.63.21.25.09.36-.35.15-.46-.66-.34-1.35-.6-2.07-.79Zm-3-.42c-.45-.25-.9-.5-1.35-.75.29.13.57.28.86.42.19.11.37.23.55.35-.02,0-.05-.01-.07-.02Z"/>
      </g>
    </g>
  </g>
</svg>